<svg class="img-fluid" id="outputsvg" xmlns="http://www.w3.org/2000/svg" width="534" height="534" viewBox="0 0 5340 5340"><g id="lOxwixlyI1NKjoE8VUBB0j" fill="rgb(43,57,152)" style="transform: none;"><g><path id="pm0eKaZ9k" d="M365 5048 c4 -68 16 -156 26 -196 51 -200 210 -388 443 -524 146 -85 361 -165 571 -212 66 -15 128 -31 138 -37 43 -23 15 60 -113 335 -72 154 -130 281 -130 282 0 1 72 -27 160 -62 102 -41 174 -64 199 -64 l40 0 187 277 c103 153 189 288 192 301 l4 22 -862 0 -863 0 8 -122z"></path><path id="pCFrsadpT" d="M2410 5150 c0 -11 91 -146 201 -300 178 -248 204 -280 228 -280 15 0 94 27 176 60 82 33 150 58 152 57 1 -2 -56 -129 -127 -282 -119 -254 -148 -335 -120 -335 6 0 10 4 10 9 0 5 44 19 98 31 248 57 531 173 693 285 44 30 85 55 90 55 14 0 10 33 -6 54 -24 31 -18 72 15 109 22 25 30 45 30 71 0 20 -5 36 -10 36 -13 0 -50 60 -50 81 0 9 12 34 26 55 34 50 29 99 -22 219 l-39 90 -673 3 c-666 2 -672 2 -672 -18z"></path><path id="p18O8iQviE" d="M4293 5128 c3 -24 11 -66 17 -95 l11 -51 87 0 c104 1 142 -12 210 -76 54 -50 96 -128 113 -205 17 -81 29 -71 103 84 43 90 53 135 62 273 l7 112 -308 0 -308 0 6 -42z"></path></g></g><g id="l4HEKp9Rb4IBY8Oe6gWJKSe" fill="rgb(203,44,42)" style="transform: none;"><g><path id="p16Xa5XXxC" d="M4341 5013 l-1 -33 73 0 c69 0 167 -24 167 -42 0 -4 16 -8 37 -8 35 0 36 0 18 20 -38 42 -103 63 -196 64 -70 1 -89 4 -93 16 -2 8 -4 0 -5 -17z"></path><path id="pIAxPxsfA" d="M3807 4935 c3 -9 -2 -24 -10 -33 -9 -10 -23 -35 -32 -55 -19 -47 -6 -107 31 -144 24 -24 24 -26 8 -44 -16 -18 -16 -19 19 -19 35 0 37 2 37 31 0 22 -9 41 -30 61 -35 33 -55 118 -28 118 24 0 48 34 48 68 0 27 -4 32 -25 32 -18 0 -23 -4 -18 -15z"></path><path id="pAfzB47X3" d="M4660 4886 c0 -25 4 -36 15 -36 9 0 15 -9 15 -25 0 -14 4 -25 8 -25 5 0 15 -29 22 -65 11 -53 17 -65 33 -65 17 0 18 5 12 43 -9 52 -32 111 -61 159 -33 52 -44 55 -44 14z"></path><path id="pt6NqlWHM" d="M3755 4578 c-9 -46 14 -110 45 -125 22 -11 25 -10 28 7 2 11 -6 32 -17 46 -13 17 -21 41 -21 65 0 50 -26 54 -35 7z"></path><path id="pcI2XB3jh" d="M2005 3390 c-542 -23 -1006 -121 -1100 -231 -35 -42 -35 -110 0 -145 74 -74 338 -141 707 -179 81 -8 188 -15 238 -15 l90 0 0 43 c0 23 -7 69 -14 102 -8 33 -13 61 -11 63 1 2 30 -45 62 -105 l60 -108 126 -3 126 -3 6 46 c10 62 22 65 30 5 l7 -50 177 0 177 0 53 91 c29 50 55 89 57 87 2 -3 -1 -20 -6 -39 -16 -55 -13 -129 5 -129 39 0 320 32 410 46 238 38 400 90 463 147 33 31 32 118 -3 153 -150 150 -924 255 -1660 224z"></path></g></g><g id="l3n2O1dXDASdk9T4382OryN" fill="rgb(47,120,137)" style="transform: none;"><g><path id="pA38S9C3h" d="M4550 3985 c0 -20 14 -119 31 -221 35 -206 34 -221 -22 -249 -17 -9 -75 -22 -129 -27 l-98 -11 17 -60 17 -61 -75 -75 c-106 -106 -161 -217 -174 -353 l-5 -48 37 0 c33 0 38 4 64 53 99 189 271 331 458 379 75 19 92 20 159 9 83 -13 174 -52 234 -100 26 -21 50 -31 73 -31 l34 0 -18 31 c-47 82 -217 187 -342 212 -34 7 -67 20 -71 28 -10 17 -85 270 -130 437 -22 77 -38 122 -47 122 -8 0 -13 -13 -13 -35z"></path><path id="p1BvHt2xNk" d="M4905 2951 c-3 -5 3 -12 12 -14 10 -3 3 -5 -14 -6 -18 0 -33 -3 -33 -6 0 -11 144 -262 162 -281 24 -27 134 -78 153 -70 8 2 18 13 23 23 8 15 -8 48 -83 168 -52 83 -106 160 -120 173 -27 22 -88 31 -100 13z"></path></g></g><g id="l4XoT7Rd2PDinNu3MdrZlUT" fill="rgb(213,64,56)" style="transform: none;"><g><path id="p1HU9LX5xU" d="M4215 5016 c-38 -14 -104 -40 -145 -60 -41 -20 -85 -36 -97 -36 -20 0 -23 -5 -23 -36 l0 -36 53 4 c34 3 88 21 154 51 57 26 125 53 153 59 51 12 54 16 44 56 -8 29 -47 29 -139 -2z"></path><path id="poM8612m9" d="M4388 5013 c-10 -2 -18 -11 -18 -19 0 -10 14 -14 55 -14 40 0 55 4 55 14 0 21 -48 31 -92 19z"></path><path id="po9WLNHzi" d="M4490 4991 c0 -20 25 -31 73 -31 38 0 34 18 -8 36 -46 19 -65 18 -65 -5z"></path><path id="pqpc9hLjJ" d="M3813 4928 c2 -7 -9 -28 -24 -46 -34 -39 -38 -72 -9 -72 15 0 22 9 26 30 5 25 9 28 25 20 10 -6 34 -10 53 -10 34 0 36 2 36 33 0 28 -5 35 -33 45 -44 16 -80 16 -74 0z"></path><path id="p1BEO8fAyL" d="M4650 4897 c0 -21 5 -37 10 -37 6 0 10 -7 10 -15 0 -8 7 -15 15 -15 10 0 15 -10 15 -30 0 -16 4 -30 9 -30 5 0 12 -25 16 -55 5 -45 10 -55 26 -55 23 0 23 9 4 85 -17 65 -58 145 -86 171 -18 16 -19 16 -19 -19z"></path><path id="pGvl3xRYM" d="M3767 4751 c3 -10 17 -31 32 -45 l28 -27 -33 -33 c-39 -39 -45 -76 -14 -76 15 0 22 9 27 30 4 21 11 30 24 30 15 0 19 7 19 35 0 28 -4 35 -20 35 -16 0 -20 7 -20 35 0 30 -3 35 -24 35 -19 0 -23 -4 -19 -19z"></path><path id="pmdaYACUk" d="M1896 4265 c-20 -79 -36 -165 -36 -190 l0 -45 40 0 40 0 -1 53 c0 28 14 103 30 166 41 150 41 161 -3 161 l-34 0 -36 -145z"></path><path id="p1FVKXTUkk" d="M2480 4368 c0 -13 16 -92 37 -175 l37 -153 33 0 c43 0 43 6 -4 198 l-37 152 -33 0 c-27 0 -33 -4 -33 -22z"></path><path id="p9gmOsdRM" d="M4500 4195 c0 -8 -9 -15 -20 -15 -11 0 -23 -7 -26 -15 -4 -8 -13 -15 -20 -15 -8 0 -17 -7 -20 -15 -4 -8 -12 -15 -19 -15 -8 0 -20 -6 -28 -14 -18 -18 -186 -76 -221 -76 -19 0 -26 -5 -26 -20 0 -12 5 -17 14 -14 8 3 21 -4 29 -16 13 -19 21 -21 59 -15 53 9 178 55 178 65 0 4 11 11 25 14 14 4 25 11 25 16 0 6 7 10 15 10 7 0 18 6 22 13 4 8 16 16 25 20 10 3 20 22 24 44 4 21 11 44 17 51 7 9 2 12 -22 12 -21 0 -31 -5 -31 -15z"></path><path id="p0BYRwNBe" d="M2070 4075 l0 -35 215 0 215 0 0 35 0 35 -215 0 -215 0 0 -35z"></path><path id="pmVbbaABg" d="M2060 3380 c0 -18 7 -20 73 -20 85 0 117 7 117 26 0 11 -21 14 -95 14 -88 0 -95 -1 -95 -20z"></path><path id="p1o3Nci5v" d="M2320 3386 c0 -19 32 -26 123 -26 70 0 77 2 77 20 0 19 -7 20 -100 20 -78 0 -100 -3 -100 -14z"></path><path id="p19RhTQtSc" d="M1850 3370 c0 -16 7 -20 33 -20 47 0 77 10 77 26 0 10 -15 14 -55 14 -48 0 -55 -2 -55 -20z"></path><path id="p1EFSacLQl" d="M2610 3376 c0 -16 30 -26 78 -26 25 0 32 4 32 20 0 18 -7 20 -55 20 -40 0 -55 -4 -55 -14z"></path><path id="pK3Cun0Rb" d="M1580 3359 c-259 -32 -566 -106 -604 -144 -6 -7 -22 -15 -34 -19 -39 -13 -62 -54 -62 -112 0 -47 2 -54 20 -54 14 0 20 -7 20 -21 0 -55 363 -151 663 -175 76 -6 87 -5 87 9 0 18 9 16 -216 46 -271 37 -491 106 -531 167 -43 66 68 141 293 198 125 32 299 62 434 76 154 16 170 19 170 35 0 20 -53 18 -240 -6z"></path><path id="p1CE6IBUbT" d="M2750 3366 c0 -15 30 -26 73 -26 20 0 27 5 27 20 0 17 -7 20 -50 20 -36 0 -50 -4 -50 -14z"></path><path id="p3x0tNES6" d="M2860 3355 c0 -15 2 -16 180 -40 410 -57 669 -164 614 -253 -50 -81 -332 -158 -709 -195 -100 -10 -131 -10 -133 -1 -2 7 4 39 12 72 20 76 21 69 -15 88 -37 18 -27 28 -101 -99 -29 -48 -58 -87 -65 -87 -7 0 -13 -4 -13 -10 0 -5 16 -10 35 -10 28 0 38 5 47 25 15 33 51 31 56 -3 3 -19 9 -22 48 -22 60 0 307 27 419 46 183 31 405 99 405 124 0 4 9 10 20 13 12 3 20 14 20 26 0 12 5 21 10 21 11 0 13 42 4 78 -4 13 -14 22 -25 22 -12 0 -19 7 -19 20 0 52 -257 131 -585 179 -169 25 -205 26 -205 6z"></path><path id="pbNORsdkr" d="M1881 3071 c-11 -7 -10 -25 8 -105 11 -53 21 -101 21 -106 0 -6 -22 -10 -50 -10 -43 0 -50 -3 -50 -20 0 -18 7 -20 71 -20 l71 0 -4 55 c-6 66 13 82 38 32 9 -18 20 -34 23 -37 4 -3 12 -17 18 -33 l13 -27 124 0 125 0 6 38 c11 65 18 69 27 14 l10 -52 114 0 c107 0 114 1 114 20 0 19 -7 20 -98 20 l-99 0 -16 92 c-26 145 -44 145 -72 0 l-18 -93 -95 3 -95 3 -65 118 c-66 119 -82 133 -121 108z"></path><path id="p1Gdw0z6nZ" d="M1680 2840 c0 -17 7 -20 50 -20 36 0 50 4 50 14 0 15 -30 26 -72 26 -21 0 -28 -5 -28 -20z"></path></g></g><g id="l3tVZI3KScu2HSolV9BmIkH" fill="rgb(244,68,54)" style="transform: none;"><g><path id="pryHqx3zR" d="M4245 5021 c-33 -9 -102 -37 -154 -60 -109 -51 -164 -60 -209 -37 -39 20 -76 21 -69 2 3 -8 -1 -20 -9 -27 -24 -20 -44 -65 -44 -99 0 -37 13 -65 47 -102 l25 -26 -21 -11 c-51 -28 -69 -136 -31 -184 11 -14 36 -31 55 -38 l34 -13 -25 -29 c-32 -38 -39 -71 -25 -118 14 -47 59 -79 110 -79 32 0 33 -1 25 -27 -32 -111 30 -176 170 -176 39 0 63 -2 53 -4 -28 -7 -9 -23 26 -23 49 0 187 52 248 93 86 59 91 64 87 90 -2 17 12 40 52 84 98 109 165 242 176 352 13 121 -34 260 -116 342 -58 58 -117 79 -222 79 -63 0 -78 3 -78 15 0 19 -29 18 -105 -4z"></path><path id="pF4YCjgKv" d="M1936 4402 c-12 -19 -76 -294 -76 -325 l0 -34 375 1 375 1 0 38 c0 20 -16 103 -36 182 l-36 145 -299 0 c-164 0 -300 -4 -303 -8z m447 -329 c-51 -2 -136 -2 -190 0 -54 1 -12 3 92 3 105 0 149 -2 98 -3z"></path><path id="p13HEoki9j" d="M3656 3062 c-41 -79 -283 -151 -650 -192 -211 -25 -206 -25 -206 0 0 10 -9 24 -20 30 -11 6 -20 8 -20 5 0 -3 -10 1 -22 9 -21 15 -23 14 -49 -28 l-27 -43 -99 -6 c-160 -11 -203 -9 -203 8 0 8 -4 15 -10 15 -18 0 -11 -91 20 -260 16 -91 30 -168 30 -172 0 -5 15 -8 33 -8 32 0 35 4 142 193 106 185 111 192 143 195 30 3 33 1 27 -17 -43 -136 -85 -293 -85 -318 0 -31 2 -33 33 -33 27 0 53 17 141 90 59 50 110 90 113 90 3 0 -5 -17 -17 -37 -157 -265 -170 -291 -170 -326 0 -35 2 -37 30 -37 17 0 79 20 138 44 278 115 385 156 391 151 7 -8 3 -10 -226 -177 -172 -125 -183 -135 -183 -165 l0 -33 163 -1 c89 0 179 -3 200 -7 37 -7 30 -10 -125 -61 -274 -90 -268 -87 -268 -124 l0 -32 233 -90 232 -90 -232 -3 -233 -2 1 -33 c0 -29 14 -44 135 -146 74 -63 133 -115 132 -116 -2 -2 -75 21 -162 51 -87 30 -172 54 -187 54 -26 0 -29 -3 -29 -35 0 -28 26 -79 120 -232 117 -191 128 -213 112 -213 -4 0 -93 86 -197 190 -169 169 -193 190 -222 190 -41 0 -41 9 -2 -237 17 -107 29 -196 27 -198 -2 -2 -43 71 -93 161 -88 160 -91 164 -122 164 -18 0 -33 -2 -33 -5 0 -16 -71 -520 -74 -522 -4 -4 -36 197 -68 425 l-22 162 -31 0 c-28 0 -36 -11 -144 -185 -62 -102 -115 -185 -116 -183 -2 2 12 79 31 172 19 93 34 182 34 198 0 24 -4 28 -30 28 -24 0 -64 -30 -207 -153 -98 -84 -183 -156 -190 -160 -38 -23 -8 32 112 208 108 157 135 204 135 231 0 31 -3 34 -29 34 -22 0 -216 -54 -381 -106 -8 -2 -5 4 7 13 289 230 332 268 332 301 l1 33 -247 -6 c-287 -7 -287 -12 -1 86 l188 64 0 31 c0 31 -3 33 -92 68 -51 19 -145 56 -208 81 l-115 46 257 -6 258 -6 -1 33 c0 29 -10 41 -92 108 -50 41 -152 126 -225 189 -185 157 -169 164 83 38 116 -58 207 -97 225 -97 50 0 42 51 -32 189 -35 63 -65 120 -67 125 -2 5 74 -57 170 -137 146 -123 179 -147 207 -147 43 0 42 9 -13 230 -25 99 -45 184 -45 190 0 5 15 10 34 10 32 0 35 -3 102 -130 67 -125 70 -130 101 -130 37 0 32 -12 63 155 24 132 25 155 5 155 -8 0 -15 -7 -15 -15 0 -12 -17 -15 -95 -15 l-94 0 -36 65 c-20 36 -40 67 -44 70 -10 5 -79 -13 -85 -23 -3 -5 0 -28 5 -51 5 -24 8 -46 5 -48 -9 -9 -395 29 -540 53 -246 42 -394 92 -446 150 -16 19 -32 34 -35 34 -3 0 -5 -18 -5 -41 0 -27 6 -46 18 -57 16 -14 22 -55 41 -247 78 -808 195 -1603 283 -1925 71 -260 235 -368 633 -417 162 -19 637 -22 807 -4 339 36 541 129 621 288 84 164 189 777 296 1718 22 189 61 560 61 575 0 5 9 12 20 15 16 5 20 15 20 56 0 55 -12 63 -34 21z"></path></g></g><g id="l3McLABkC4LFinHpdYnsTUx" fill="rgb(84,99,187)" style="transform: none;"><g><path id="pBeqzJ8G9" d="M1861 4885 c-106 -157 -196 -285 -201 -285 -5 0 -101 37 -215 81 -113 45 -208 80 -211 77 -5 -6 290 -652 310 -677 5 -7 22 -18 36 -23 23 -9 23 -11 6 -17 -44 -16 10 -22 147 -16 166 7 187 10 187 30 0 9 -6 12 -15 9 -22 -9 -20 8 21 171 30 120 40 145 55 145 10 0 20 8 23 18 25 84 186 733 186 750 0 20 -5 22 -69 22 l-69 0 -191 -285z"></path><path id="pAPKERFzL" d="M2280 5158 c0 -7 43 -185 96 -395 83 -326 100 -383 115 -383 20 0 18 5 67 -192 29 -114 29 -118 10 -118 -11 0 -18 -5 -16 -12 8 -23 350 -39 363 -18 3 6 -2 10 -12 11 -15 0 -15 2 4 11 16 8 66 105 179 347 86 185 158 341 161 348 3 7 -88 -26 -201 -72 l-205 -84 -203 284 -203 284 -77 1 c-56 0 -78 -4 -78 -12z"></path><path id="pC1yFQWXk" d="M3724 5138 c8 -18 31 -75 52 -126 21 -51 46 -98 56 -103 37 -20 22 32 -69 249 -3 6 -16 12 -29 12 -23 0 -24 -1 -10 -32z"></path><path id="piaaD8Dh" d="M4290 5140 c0 -16 5 -52 11 -80 9 -40 15 -50 31 -50 16 0 19 5 15 23 -3 12 -11 48 -17 80 -7 37 -16 57 -26 57 -9 0 -14 -11 -14 -30z"></path></g></g><g id="l2R5JgngeyPXtFHRkjoEH0E" fill="rgb(250,91,62)" style="transform: none;"><g><path id="pTTJ9cucv" d="M1980 3380 c0 -17 7 -20 48 -20 61 0 92 9 92 26 0 11 -17 14 -70 14 -63 0 -70 -2 -70 -20z"></path><path id="p1HOjANPOu" d="M2460 3386 c0 -17 31 -26 88 -26 35 0 42 3 42 20 0 18 -7 20 -65 20 -49 0 -65 -3 -65 -14z"></path><path id="pm7Kgz16o" d="M1820 3370 c0 -21 23 -26 68 -14 41 11 26 34 -23 34 -38 0 -45 -3 -45 -20z"></path><path id="pNhdv0GFh" d="M2660 3376 c0 -15 30 -26 73 -26 20 0 27 5 27 20 0 17 -7 20 -50 20 -36 0 -50 -4 -50 -14z"></path><path id="pkhpoQKiZ" d="M1700 3360 c0 -21 16 -25 58 -14 39 11 27 34 -18 34 -33 0 -40 -3 -40 -20z"></path><path id="pq172yX11" d="M2790 3366 c0 -14 29 -26 68 -26 15 0 22 6 22 20 0 17 -7 20 -45 20 -32 0 -45 -4 -45 -14z"></path><path id="pxIcPjKUb" d="M1490 3350 c-153 -23 -330 -61 -330 -70 0 -4 -21 -10 -47 -13 -26 -3 -49 -10 -51 -16 -2 -6 -15 -11 -28 -11 -15 0 -24 -6 -24 -15 0 -9 -9 -15 -24 -15 -40 0 -56 -11 -56 -36 0 -19 -5 -24 -25 -24 -24 0 -25 -2 -25 -75 0 -70 1 -75 21 -75 20 0 21 4 15 50 -4 30 -2 58 4 70 38 71 288 153 590 195 177 24 180 25 180 40 0 19 -50 18 -200 -5z"></path><path id="p10tCkYHYk" d="M2890 3355 c0 -8 13 -16 33 -19 17 -3 82 -13 142 -21 294 -43 510 -111 574 -179 25 -26 29 -65 15 -128 -6 -29 1 -34 24 -20 16 11 29 142 14 142 -6 0 -12 10 -14 23 -2 17 -11 23 -35 25 -24 2 -33 8 -33 22 0 19 -19 30 -51 30 -10 0 -19 4 -19 9 0 19 -254 81 -455 111 -169 24 -195 25 -195 5z"></path><path id="pxxLK2uNa" d="M2296 3023 c-3 -10 -21 -103 -41 -208 -20 -104 -38 -201 -41 -215 -5 -20 -17 -2 -76 108 l-71 132 -74 0 c-40 0 -73 -1 -73 -2 0 -2 25 -99 54 -215 l54 -213 -37 29 c-20 16 -121 102 -226 190 -104 88 -196 161 -202 161 -25 0 -12 -30 87 -212 55 -101 100 -186 100 -190 0 -4 -97 40 -214 99 -233 116 -229 115 -262 52 -14 -27 -13 -28 59 -92 39 -35 145 -125 235 -201 149 -124 160 -136 132 -136 -18 0 -29 -4 -25 -10 3 -5 22 -10 41 -10 32 0 34 2 34 33 0 36 -15 57 -40 57 -8 0 -20 10 -25 23 -6 12 -19 23 -30 25 -11 2 -25 12 -30 24 -6 12 -19 26 -30 32 -40 22 -72 76 -45 76 6 0 10 6 10 14 0 7 6 19 14 25 11 10 29 5 85 -23 39 -20 84 -36 101 -36 28 0 30 3 30 35 0 46 -29 105 -52 105 -13 0 -18 8 -18 30 0 41 -20 80 -42 80 -13 0 -18 8 -18 30 0 25 4 30 24 30 18 0 25 -6 28 -22 2 -17 11 -24 31 -26 18 -2 27 -9 27 -21 0 -21 19 -41 40 -41 8 0 20 -10 25 -22 6 -14 21 -24 37 -26 19 -2 28 -10 30 -25 2 -16 11 -23 31 -25 18 -2 27 -9 27 -21 0 -27 25 -43 62 -39 28 3 33 7 36 32 2 16 -11 87 -28 158 -35 140 -33 158 19 158 23 0 32 -12 76 -95 47 -89 52 -95 82 -95 38 0 34 -10 68 180 15 80 29 152 32 160 3 8 23 -79 44 -195 21 -115 41 -225 44 -242 5 -30 9 -33 40 -33 29 0 36 4 41 25 3 14 10 25 14 25 4 0 13 15 21 33 7 17 16 34 19 37 4 3 23 34 43 70 57 100 50 94 88 75 19 -10 35 -18 36 -20 2 -1 -8 -39 -22 -85 -14 -46 -25 -96 -25 -112 0 -25 4 -28 31 -28 41 0 69 16 69 40 0 15 7 20 26 20 17 0 28 6 31 19 3 11 15 21 27 23 11 2 25 13 31 25 5 12 19 23 30 25 11 2 24 13 30 26 5 12 16 22 23 22 10 0 10 -4 -2 -16 -9 -8 -19 -26 -22 -40 -3 -13 -10 -24 -14 -24 -5 0 -12 -10 -16 -22 -3 -12 -13 -28 -20 -36 -8 -7 -14 -24 -14 -38 0 -14 -6 -24 -14 -24 -8 0 -18 -10 -22 -22 -3 -12 -13 -28 -20 -36 -8 -7 -14 -24 -14 -38 0 -14 -6 -24 -14 -24 -17 0 -26 -22 -26 -66 0 -31 3 -34 28 -34 16 0 84 23 152 50 68 28 125 50 127 50 1 0 10 -14 19 -32 16 -31 16 -32 -7 -50 -13 -11 -36 -30 -51 -42 -15 -13 -34 -26 -43 -29 -8 -4 -15 -11 -15 -17 0 -5 -7 -10 -15 -10 -8 0 -15 -4 -15 -10 0 -5 -7 -10 -15 -10 -10 0 -15 -11 -15 -35 0 -33 2 -35 35 -35 19 0 35 5 35 10 0 6 8 11 18 11 9 1 2 4 -16 8 -32 6 -29 8 130 123 217 157 285 211 270 216 -7 2 -10 8 -6 13 3 5 0 9 -7 9 -7 0 -10 3 -6 6 3 3 0 12 -6 19 -14 15 -57 0 -357 -123 -107 -44 -197 -79 -199 -77 -2 3 56 106 129 229 138 236 152 266 128 266 -8 0 -91 -63 -183 -140 -93 -77 -170 -138 -172 -137 -1 2 22 86 52 187 30 101 52 186 50 188 -2 3 -35 1 -72 -4 l-68 -9 -109 -192 c-61 -106 -111 -191 -113 -190 -1 2 -18 93 -38 202 -20 110 -43 238 -51 285 -9 46 -18 88 -20 92 -9 14 -22 9 -28 -9z"></path><path id="p442MSRrS" d="M1142 2104 c3 -18 30 -30 392 -169 l98 -38 -238 -84 c-132 -47 -254 -90 -272 -96 -71 -23 -27 -32 179 -35 222 -3 269 1 269 23 0 12 -16 15 -74 15 -66 0 -75 2 -81 20 -3 11 -4 24 -1 29 3 5 62 28 131 52 124 44 125 44 125 75 0 32 -13 44 -51 44 -10 0 -19 4 -19 8 0 10 -87 42 -112 42 -10 0 -18 4 -18 8 0 10 -87 42 -112 42 -10 0 -18 4 -18 8 0 9 -87 42 -112 42 -9 0 -18 4 -20 10 -1 5 -18 13 -37 16 -29 6 -33 4 -29 -12z"></path><path id="p14Pf1np6p" d="M1290 2100 c0 -19 7 -20 160 -20 130 0 160 3 160 14 0 21 -33 26 -182 26 -131 0 -138 -1 -138 -20z"></path><path id="pvfM93khb" d="M3090 2050 c0 -19 7 -20 108 -21 l107 -1 -180 -60 c-99 -34 -181 -65 -183 -69 -2 -5 -12 -9 -22 -9 -37 0 -50 -12 -50 -44 0 -31 1 -32 139 -85 l139 -53 -5 -54 -6 -54 162 0 c131 0 161 3 161 14 0 14 -131 71 -407 177 -81 31 -136 57 -130 61 7 4 122 44 257 89 135 45 249 85 255 90 5 6 5 13 -3 21 -11 11 -48 4 -108 -19 -8 -3 -14 1 -14 10 0 20 -31 27 -132 27 -81 0 -88 -2 -88 -20z"></path><path id="p16u7XZoME" d="M1635 1700 c-4 -6 7 -10 25 -10 29 0 10 -18 -190 -181 -170 -139 -219 -184 -210 -193 10 -13 24 -9 453 119 26 8 47 13 47 11 0 -2 -61 -93 -136 -202 -75 -110 -141 -208 -146 -220 -8 -17 -4 -27 20 -53 l29 -32 64 52 c35 29 128 109 207 176 103 90 141 118 137 101 -3 -13 -26 -124 -50 -247 -34 -169 -42 -227 -33 -232 7 -4 15 -6 18 -4 3 2 71 110 150 239 l145 236 22 -153 c12 -83 31 -216 43 -295 l22 -142 34 0 c19 0 34 3 34 6 0 13 71 518 73 520 1 1 56 -94 121 -212 65 -118 122 -216 126 -219 25 -16 25 31 0 190 -16 94 -35 212 -43 263 l-14 94 63 -63 64 -63 0 35 c0 48 -80 129 -128 129 -30 0 -32 -2 -32 -36 0 -30 37 -287 55 -384 4 -25 4 -25 -7 -2 -6 12 -17 22 -25 22 -7 0 -13 9 -13 20 0 29 -21 70 -37 70 -7 0 -13 9 -13 20 0 29 -21 70 -37 70 -7 0 -13 9 -13 21 0 23 -18 60 -34 71 -6 4 -25 8 -42 8 l-30 0 -14 -110 c-7 -64 -18 -114 -26 -121 -7 -6 -26 -8 -42 -4 -29 6 -30 8 -46 110 -9 57 -16 113 -16 124 0 12 -4 21 -10 21 -5 0 -10 7 -10 15 0 10 -11 15 -35 15 -24 0 -35 -5 -35 -15 0 -8 -4 -15 -10 -15 -5 0 -12 -11 -16 -25 -3 -14 -10 -25 -15 -25 -5 0 -9 -7 -9 -15 0 -8 -4 -15 -9 -15 -5 0 -13 -10 -17 -22 -3 -12 -13 -28 -20 -36 -8 -7 -14 -20 -14 -28 0 -8 -4 -14 -10 -14 -5 0 -10 -7 -10 -15 0 -8 -4 -15 -9 -15 -5 0 -13 -10 -17 -22 -3 -12 -13 -28 -20 -36 -8 -7 -14 -20 -14 -28 0 -8 -4 -14 -10 -14 -13 0 -15 -18 20 161 16 85 30 165 30 178 0 23 -2 24 -51 18 -52 -6 -89 -29 -89 -54 0 -7 -8 -13 -18 -13 -11 0 -27 -9 -37 -20 -24 -27 -39 -25 -64 6 -22 28 -28 64 -11 64 6 0 10 4 10 9 0 6 11 22 25 37 13 14 30 39 37 55 7 16 16 29 20 29 5 0 8 16 8 35 0 34 -1 35 -38 35 -29 0 -264 -62 -359 -95 -7 -2 -13 2 -13 10 0 9 9 15 21 15 12 0 23 8 26 19 3 11 15 21 27 23 13 2 22 11 24 26 3 16 10 22 29 22 16 0 27 7 30 20 3 11 14 20 25 20 11 0 22 8 25 19 3 11 15 21 27 23 11 2 25 13 31 25 5 12 19 23 30 25 15 2 21 12 23 41 3 36 3 37 -32 37 -19 0 -38 -4 -41 -10z"></path><path id="py6any8af" d="M2890 1587 c0 -39 15 -57 47 -57 15 0 23 -6 23 -18 0 -25 19 -42 47 -42 15 0 23 -6 23 -18 0 -25 19 -42 47 -42 15 0 23 -6 23 -18 0 -25 19 -42 47 -42 13 0 23 -4 23 -10 0 -5 -21 -7 -51 -3 -82 10 -58 -17 50 -54 91 -32 112 -34 110 -10 0 7 -84 83 -185 170 -169 143 -183 157 -154 157 18 0 29 4 25 10 -3 6 -22 10 -41 10 -32 0 -34 -2 -34 -33z"></path><path id="p18piJ6VOL" d="M2760 1406 c0 -19 7 -41 15 -50 8 -8 15 -18 15 -22 0 -4 14 -29 31 -57 26 -42 29 -54 20 -74 -11 -24 -19 -26 -86 -23 l-40 1 140 -140 c107 -108 141 -137 148 -126 4 8 14 15 22 15 15 0 39 35 32 48 -3 4 -61 100 -131 214 -69 114 -126 209 -126 212 0 2 59 -15 130 -39 128 -43 130 -43 130 -21 0 19 -14 26 -113 59 -62 20 -130 37 -150 37 -35 0 -37 -1 -37 -34z"></path></g></g><g id="l1eF4pcTKJIFr4DWmbQp0Bv" fill="rgb(254,107,64)" style="transform: none;"><g><path id="p5e8YBAOh" d="M880 3026 c0 -25 5 -35 20 -39 21 -5 25 8 14 51 -10 35 -34 27 -34 -12z"></path><path id="pMqFCh4AW" d="M2295 3018 c-2 -7 -20 -103 -40 -213 -20 -110 -38 -208 -41 -219 -5 -13 -21 10 -63 85 -54 99 -76 120 -105 101 -6 -3 -17 -7 -24 -8 -8 -2 -21 -6 -30 -10 -9 -4 -20 -8 -24 -8 -17 -2 -14 -22 23 -170 22 -87 38 -160 35 -163 -2 -2 -106 82 -231 187 -238 200 -273 219 -220 121 26 -47 45 -65 45 -41 0 6 11 10 25 10 18 0 25 -5 25 -20 0 -15 -7 -20 -25 -20 -14 0 -25 -3 -25 -6 0 -13 54 -104 62 -104 11 0 10 57 -2 81 -10 17 -7 19 19 19 25 0 30 -4 33 -27 2 -23 8 -29 36 -31 26 -3 32 -7 32 -28 0 -20 5 -24 30 -24 25 0 30 -4 30 -25 0 -21 5 -25 30 -25 25 0 30 -4 30 -25 0 -22 4 -25 35 -25 31 0 35 -3 35 -26 0 -60 128 -117 190 -84 24 13 30 35 80 310 23 124 44 232 47 240 3 8 18 -55 34 -140 75 -415 69 -389 96 -410 32 -25 87 -26 135 -2 55 28 157 115 157 134 1 11 11 18 29 20 19 2 28 9 30 26 3 16 10 22 28 22 19 0 24 5 24 25 0 21 5 25 30 25 25 0 30 4 30 25 0 20 5 25 25 25 20 0 25 -5 25 -25 0 -18 -5 -25 -20 -25 -15 0 -20 -7 -20 -25 0 -16 -6 -25 -15 -25 -10 0 -15 -11 -15 -35 0 -28 -4 -35 -20 -35 -15 0 -20 -7 -20 -25 0 -16 -6 -25 -15 -25 -9 0 -15 -9 -15 -25 0 -15 -6 -25 -14 -25 -15 0 -26 -21 -26 -51 0 -10 -6 -19 -13 -19 -23 0 -57 -86 -57 -145 0 -46 4 -56 26 -74 23 -18 41 -21 126 -21 55 0 108 5 119 10 15 8 19 7 19 -5 0 -12 15 -15 80 -15 61 0 80 3 80 14 0 19 -32 26 -133 26 l-89 0 105 77 c57 43 105 81 106 86 2 11 -50 111 -61 118 -6 4 -75 -20 -154 -51 -79 -32 -144 -56 -144 -53 0 3 63 113 141 245 94 161 137 244 130 251 -6 6 -65 -37 -178 -130 -92 -76 -173 -142 -180 -146 -12 -8 -11 -1 32 138 8 28 15 57 14 65 0 14 -85 61 -119 67 -10 1 -44 -48 -100 -147 -59 -104 -87 -144 -91 -132 -3 9 -28 142 -54 295 -35 199 -53 277 -62 277 -8 0 -15 -6 -18 -12z m685 -363 c0 -8 -4 -15 -10 -15 -5 0 -10 7 -10 15 0 8 5 15 10 15 6 0 10 -7 10 -15z"></path><path id="pyEtLo6S7" d="M3657 2999 c-4 -15 -2 -19 10 -15 8 3 17 6 19 6 2 0 4 7 4 15 0 23 -27 18 -33 -6z"></path><path id="pHkcVwaBW" d="M1690 2514 c0 -13 44 -84 52 -84 9 0 11 51 2 74 -6 15 -54 24 -54 10z"></path><path id="pZC89FfV8" d="M1548 2435 c-10 -13 -18 -29 -18 -34 0 -6 -4 -11 -10 -11 -5 0 -10 -5 -10 -11 0 -6 -7 -17 -15 -26 -20 -20 -15 -26 129 -147 99 -83 106 -91 81 -94 -21 -3 -24 -6 -14 -18 8 -10 33 -14 80 -14 92 0 109 16 109 102 0 52 -6 73 -41 142 -23 45 -42 81 -43 82 0 1 -14 4 -29 8 -26 6 -27 5 -18 -13 6 -11 11 -22 11 -25 0 -4 -40 14 -90 39 -49 25 -93 45 -97 45 -5 0 -16 -11 -25 -25z"></path><path id="pa2EvyN8s" d="M1144 2109 c-3 -6 -2 -14 2 -18 5 -5 118 -50 252 -101 l244 -93 -94 -33 c-190 -68 -177 -60 -173 -102 6 -71 -4 -67 163 -72 l154 -5 -216 -175 c-195 -158 -238 -200 -205 -200 6 0 60 14 120 32 111 33 144 58 74 58 -19 0 -35 -4 -35 -10 0 -5 -13 -10 -30 -10 -16 0 -30 5 -30 10 0 6 11 10 25 10 18 0 25 5 25 20 0 15 7 20 25 20 20 0 25 5 25 25 0 21 5 25 30 25 23 0 30 4 30 20 0 15 7 20 25 20 18 0 25 5 25 20 0 15 7 20 25 20 20 0 25 5 25 25 0 21 5 25 30 25 23 0 30 5 30 19 0 12 9 20 28 24 44 9 66 59 60 136 -3 49 -9 67 -29 85 -27 26 -117 66 -148 66 -12 0 -21 5 -21 10 0 6 -11 10 -25 10 -14 0 -25 4 -25 10 0 5 -18 13 -40 16 -22 4 -40 10 -40 15 0 5 -11 9 -25 9 -14 0 -25 4 -25 10 0 5 -18 13 -40 16 -22 4 -40 10 -40 15 0 4 -12 10 -27 12 -20 3 -15 4 15 6 46 1 59 24 20 35 -39 10 -176 7 -184 -5z"></path><path id="p4KozXieB" d="M3308 2032 c-66 -22 -78 -29 -78 -48 l0 -23 98 33 c65 22 98 38 100 49 5 24 -27 21 -120 -11z"></path><path id="p4DROEgwR" d="M2860 1879 c-80 -28 -100 -55 -100 -136 l0 -66 53 -54 c38 -37 62 -53 80 -53 22 0 27 -5 27 -25 0 -22 4 -25 35 -25 32 0 35 -2 35 -30 0 -28 3 -30 35 -30 32 0 35 -2 35 -30 0 -28 3 -30 35 -30 32 0 35 -2 35 -30 0 -28 -2 -29 -26 -20 -14 6 -39 10 -55 10 -57 0 -25 -24 82 -62 104 -37 149 -46 149 -29 0 5 -84 80 -186 167 l-186 159 131 3 c94 2 131 6 132 15 0 7 2 19 4 27 2 8 6 24 9 35 2 11 7 27 11 37 5 13 -20 26 -144 75 l-151 58 40 17 c87 37 19 52 -80 17z m340 -549 c0 -12 -8 -12 -35 0 -18 8 -17 9 8 9 15 1 27 -3 27 -9z"></path><path id="p1Cq2YwhnG" d="M1780 1499 c-41 -11 -77 -24 -80 -28 -3 -4 -25 -11 -50 -14 -24 -3 -46 -11 -48 -16 -2 -6 -19 -11 -38 -11 -27 0 -34 -4 -34 -20 0 -26 6 -25 124 10 55 17 103 30 108 30 5 0 -22 -46 -61 -101 l-70 -102 36 -43 c19 -24 40 -44 46 -44 5 0 15 -7 21 -15 10 -14 25 -4 106 64 52 44 96 78 97 77 2 -2 -6 -47 -17 -101 -24 -118 -24 -115 -2 -115 16 0 23 25 52 175 26 137 31 184 24 213 -16 65 -79 77 -214 41z"></path><path id="p13DryaMKF" d="M2565 1465 c-34 -33 -33 -85 10 -355 19 -121 35 -223 35 -225 0 -3 -7 -5 -15 -5 -20 0 -19 -2 13 -60 27 -50 52 -65 52 -31 0 10 -18 130 -40 267 -22 137 -40 253 -40 259 0 5 45 -36 99 -93 98 -101 134 -122 147 -87 4 8 11 15 16 15 5 0 23 13 39 29 l29 30 -56 93 c-31 51 -59 97 -62 102 -3 5 7 6 21 2 25 -6 26 -5 16 17 -8 17 -29 30 -78 45 -93 30 -155 29 -186 -3z"></path><path id="pHot2ePqk" d="M2166 1338 c-20 -23 -36 -48 -36 -55 0 -7 -4 -13 -10 -13 -5 0 -10 -11 -10 -25 0 -16 -6 -25 -15 -25 -10 0 -15 -11 -15 -35 0 -19 3 -35 8 -35 4 0 23 26 42 57 l34 58 7 -30 c4 -17 15 -82 24 -147 15 -103 19 -117 38 -122 38 -10 104 -6 115 6 5 7 16 61 23 121 7 59 16 107 20 107 4 0 33 -47 65 -105 31 -58 61 -105 66 -105 9 0 11 51 2 74 -3 9 -15 16 -25 16 -14 0 -19 7 -19 29 0 42 -10 61 -31 61 -14 0 -19 7 -19 29 0 33 -41 113 -78 154 -23 24 -33 27 -88 27 -61 0 -63 -1 -98 -42z"></path><path id="p68D4vDr4" d="M2030 1115 c0 -16 -6 -25 -15 -25 -10 0 -15 -11 -15 -35 0 -19 3 -35 8 -35 7 0 72 102 72 114 0 3 -11 6 -25 6 -20 0 -25 -5 -25 -25z"></path><path id="p9yoXwma8" d="M1890 1026 c0 -2 -9 -48 -20 -101 -23 -113 -25 -135 -7 -135 18 0 62 81 48 90 -9 5 -9 19 -2 51 15 65 14 99 -4 99 -8 0 -15 -2 -15 -4z"></path><path id="peqe2dA84" d="M1950 985 c0 -16 -6 -25 -15 -25 -10 0 -15 -11 -15 -35 0 -19 3 -35 8 -35 7 0 72 102 72 114 0 3 -11 6 -25 6 -20 0 -25 -5 -25 -25z"></path><path id="pRVEFJaxd" d="M2530 964 c0 -12 34 -64 42 -64 4 0 8 16 8 35 0 31 -3 35 -25 35 -14 0 -25 -3 -25 -6z"></path></g></g><g id="l1RatkgodxTR4H1EegQ3SNA" fill="rgb(130,174,192)" style="transform: none;"><g><path id="pcykVEVX7" d="M2160 5163 c0 -5 -45 -183 -99 -396 -93 -364 -98 -388 -78 -385 18 3 30 41 114 368 51 201 93 377 93 393 0 17 -5 27 -15 27 -8 0 -15 -3 -15 -7z"></path><path id="pnaQ8v00p" d="M2280 5150 c0 -16 89 -376 181 -732 7 -28 15 -38 30 -38 15 0 19 5 15 18 -2 9 -46 179 -96 377 -50 198 -93 368 -96 378 -7 24 -34 22 -34 -3z"></path><path id="p11Hmo0OEw" d="M3723 5153 c3 -10 27 -68 53 -130 46 -110 47 -113 90 -129 65 -25 138 -13 257 42 54 25 126 52 161 61 l62 17 -15 78 -15 78 -299 0 c-280 0 -299 -1 -294 -17z"></path><path id="pIXLCTuX8" d="M4470 4125 c-68 -55 -159 -101 -243 -121 l-65 -16 90 -270 91 -271 86 7 c165 13 211 40 211 122 0 102 -91 596 -110 593 -3 0 -30 -20 -60 -44z"></path><path id="pKZFvi1Vv" d="M1760 4060 c-569 -39 -943 -123 -1089 -246 -64 -54 -64 -54 -26 -331 19 -136 37 -267 40 -290 8 -53 24 -55 71 -8 111 111 465 207 964 261 199 21 721 30 935 15 467 -32 858 -108 1062 -208 72 -35 133 -89 133 -118 0 -24 29 -17 34 8 2 12 9 65 15 117 6 52 23 180 38 284 26 184 26 189 8 222 -62 116 -389 222 -815 264 -63 6 -151 16 -195 22 -96 13 -1009 19 -1175 8z"></path><path id="peomrN5Vg" d="M4631 3340 c-130 -35 -273 -130 -358 -241 -37 -49 -104 -153 -117 -183 -3 -7 -10 -4 -20 7 -13 17 -15 16 -21 -25 -3 -23 -1 -73 5 -111 32 -199 149 -360 326 -447 67 -33 202 -63 255 -58 65 6 61 23 -56 203 -59 92 -110 176 -112 186 -9 33 45 126 100 174 62 55 139 86 227 92 95 7 113 -9 234 -201 111 -177 106 -175 146 -68 41 109 41 272 1 386 -25 71 -80 166 -97 166 -6 0 -29 14 -50 31 -124 99 -297 132 -463 89z"></path></g></g><g id="l6Vz0mFP0gxTClqEcNEzE0N" fill="rgb(255,213,202)" style="transform: none;"><g><path id="pucuV3SNO" d="M1930 3380 c0 -16 7 -20 33 -20 47 0 77 10 77 26 0 10 -15 14 -55 14 -48 0 -55 -2 -55 -20z"></path><path id="psgyM9F7R" d="M2530 3386 c0 -16 30 -26 78 -26 25 0 32 4 32 20 0 18 -7 20 -55 20 -40 0 -55 -4 -55 -14z"></path><path id="p1HRcyZqDs" d="M1780 3370 c0 -15 7 -20 28 -20 42 0 72 11 72 26 0 10 -14 14 -50 14 -43 0 -50 -3 -50 -20z"></path><path id="p11CQc0rAH" d="M2700 3376 c0 -14 29 -26 68 -26 15 0 22 6 22 20 0 17 -7 20 -45 20 -32 0 -45 -4 -45 -14z"></path><path id="pA5DvStK2" d="M1670 3360 c0 -21 23 -26 68 -14 41 11 26 34 -23 34 -38 0 -45 -3 -45 -20z"></path><path id="pHbPcOPhE" d="M2820 3366 c0 -7 10 -16 23 -20 41 -11 57 -7 57 14 0 17 -7 20 -40 20 -27 0 -40 -4 -40 -14z"></path><path id="p1E1PcFmBt" d="M1560 3363 c-14 -2 -81 -13 -150 -24 -69 -11 -162 -30 -207 -41 -69 -17 -83 -24 -83 -40 0 -16 5 -19 23 -15 12 3 71 17 131 31 61 14 160 32 220 41 154 22 166 25 166 41 0 14 -40 17 -100 7z"></path><path id="pU6Dv94jw" d="M2910 3355 c0 -15 -1 -15 175 -40 299 -43 540 -127 573 -199 6 -13 8 -42 5 -65 -5 -37 -4 -41 16 -41 19 0 21 5 21 59 0 68 -6 91 -26 91 -8 0 -14 7 -14 15 0 8 -7 15 -15 15 -8 0 -15 5 -15 10 0 6 -13 10 -30 10 -20 0 -30 5 -30 15 0 9 -9 15 -25 15 -14 0 -25 4 -25 8 0 19 -257 80 -448 106 -141 20 -162 20 -162 1z"></path><path id="p147b2Y5fX" d="M1030 3240 c0 -5 -9 -10 -19 -10 -32 0 -51 -11 -51 -30 0 -14 -9 -20 -32 -22 -28 -2 -34 -8 -36 -30 -2 -16 -8 -28 -13 -28 -5 0 -9 -16 -9 -35 0 -28 4 -35 20 -35 16 0 20 7 20 33 0 44 35 77 123 117 74 34 85 50 32 50 -19 0 -35 -4 -35 -10z"></path><path id="p7iIN4Z3j" d="M880 3016 c0 -15 7 -26 20 -29 22 -6 23 -3 14 31 -8 30 -34 29 -34 -2z"></path><path id="pbiQgZ34C" d="M2296 3008 c-3 -13 -28 -147 -56 -298 -28 -151 -55 -292 -61 -312 -12 -48 -38 -63 -78 -46 -16 7 -138 105 -271 217 -211 177 -280 229 -280 208 0 -3 66 -126 146 -274 158 -290 174 -333 135 -372 -21 -21 -28 -21 -356 -21 -299 0 -368 -5 -323 -23 7 -2 119 -45 248 -95 341 -131 331 -126 345 -185 17 -66 11 -72 -275 -303 -185 -149 -231 -194 -202 -194 5 0 130 36 278 80 330 99 346 103 379 90 48 -18 48 -36 -17 -369 -33 -171 -58 -315 -54 -318 11 -11 28 14 177 257 79 129 157 250 173 267 37 43 81 45 118 5 14 -15 89 -143 168 -284 135 -246 155 -277 167 -265 2 3 -17 143 -43 312 -69 437 -91 419 340 275 187 -62 311 -99 317 -93 5 5 -78 83 -211 198 -122 104 -232 201 -246 217 -15 19 -24 42 -24 63 0 65 20 76 339 184 161 55 295 102 298 105 18 18 -43 24 -324 30 -286 6 -321 8 -343 25 -32 23 -36 60 -12 108 11 21 86 150 166 287 132 226 158 280 123 259 -7 -4 -110 -88 -230 -187 -119 -100 -238 -192 -263 -205 l-45 -24 -27 20 c-32 24 -30 15 -95 382 -49 279 -68 341 -81 279z"></path></g></g><g id="l41Sx3rFOXyRg0nQ3JEVF4t" fill="rgb(224,224,224)" style="transform: none;"><g><path id="p17XOXjFgz" d="M2067 4782 c-54 -213 -98 -390 -97 -394 0 -5 8 -8 18 -8 15 0 24 27 55 153 21 83 37 162 37 174 0 12 4 23 8 25 8 3 112 402 112 428 0 5 -8 10 -17 10 -15 0 -34 -63 -116 -388z"></path><path id="pPMxmd1R5" d="M2280 5145 c0 -36 42 -199 52 -203 4 -2 8 -16 8 -30 0 -15 29 -139 63 -277 57 -224 65 -250 84 -253 21 -3 16 18 -78 388 -54 214 -99 392 -99 395 0 3 -7 5 -15 5 -9 0 -15 -9 -15 -25z"></path><path id="peJBLaKBQ" d="M1910 3493 c-552 -32 -1056 -150 -1185 -278 -41 -42 -44 -69 -13 -115 23 -34 119 -93 171 -106 l28 -6 -2 53 c-3 75 5 93 59 128 119 76 406 142 792 183 200 21 892 18 1100 -5 409 -45 686 -118 777 -203 l35 -34 -7 -65 -7 -65 28 11 c55 20 129 61 152 82 41 38 52 68 37 103 -59 140 -537 269 -1167 314 -131 9 -657 11 -798 3z"></path></g></g><g id="l3RMUmG5DvqD1JVvJ0DPTPa" fill="rgb(245,245,245)" style="transform: none;"><g><path id="pD6kqu1LE" d="M2165 5158 c-7 -21 -195 -765 -195 -772 0 -9 530 -7 530 2 1 4 -43 181 -97 395 l-97 387 -69 0 c-45 0 -69 -4 -72 -12z"></path></g></g></svg>