<svg class="img-fluid" id="outputsvg" xmlns="http://www.w3.org/2000/svg" width="534" height="534" viewBox="0 0 5340 5340"><g id="l5Jn0ReemDB3rUD3NLMfejP" fill="rgb(221,239,247)" style="transform: none;"><g style="transform: none;"><path id="pg9hrXDRD" d="M3649 5154 c-43 -45 -145 -121 -225 -167 -199 -117 -439 -155 -674 -107 -145 29 -163 17 -174 -125 -22 -273 -176 -528 -411 -681 -154 -100 -257 -134 -413 -134 -235 0 -569 122 -798 291 -43 32 -90 66 -103 75 -27 21 -54 10 -59 -24 -10 -63 91 -269 195 -400 39 -48 52 -71 47 -86 -77 -276 -199 -458 -433 -646 -36 -29 -42 -40 -37 -58 7 -20 14 -22 74 -22 130 0 269 51 380 139 43 34 56 40 71 31 11 -5 22 -10 24 -10 11 0 109 131 156 210 60 98 119 157 167 166 21 4 77 -3 151 -20 163 -36 240 -46 373 -46 255 0 467 60 642 182 87 61 220 230 268 342 16 38 16 45 4 58 -13 12 -12 20 1 59 9 24 23 84 31 134 20 114 52 188 93 209 16 9 63 21 103 26 92 13 221 58 295 101 72 43 171 140 208 203 45 77 75 173 82 258 3 43 4 78 1 78 -2 0 -20 -16 -39 -36z"></path><path id="p1EMyzOX02" d="M2800 3667 c0 -27 6 -36 28 -47 143 -67 289 -110 375 -110 l47 0 0 35 c0 33 -2 35 -34 35 -48 0 -195 44 -284 85 -41 19 -88 35 -103 35 -26 0 -29 -3 -29 -33z"></path><path id="pYABxPlOj" d="M3460 3608 c-30 -11 -79 -22 -107 -25 -53 -6 -53 -6 -53 -41 l0 -35 68 5 c37 3 102 15 145 28 76 23 77 23 77 56 0 33 -1 34 -37 33 -21 -1 -63 -10 -93 -21z"></path><path id="pWkILHKzX" d="M3640 3577 c0 -22 17 -60 51 -115 47 -77 52 -82 85 -82 31 0 34 3 34 29 0 17 -21 63 -52 114 -49 79 -56 86 -85 87 -31 0 -33 -2 -33 -33z"></path><path id="pYiptVltF" d="M3960 3160 c0 -16 5 -30 10 -30 6 0 10 5 10 11 0 7 10 9 25 5 22 -6 25 -3 25 19 0 22 -4 25 -35 25 -32 0 -35 -2 -35 -30z"></path><path id="pdsQEwxrS" d="M4310 1604 c-46 -9 -145 -47 -183 -71 -98 -62 -182 -165 -246 -305 -49 -105 -94 -148 -156 -148 -21 0 -26 4 -21 16 6 15 -9 16 -156 11 -182 -5 -243 -18 -355 -72 -169 -83 -368 -337 -434 -554 -20 -67 -20 -75 -6 -86 12 -9 15 -30 14 -106 -1 -62 3 -102 12 -118 13 -23 15 -20 66 78 68 129 109 184 197 266 142 131 344 203 593 212 163 6 225 -5 345 -64 58 -28 96 -57 169 -130 54 -54 100 -92 108 -89 9 4 13 24 13 60 0 146 -70 306 -197 448 -41 46 -44 54 -38 87 23 125 193 324 335 394 83 41 197 67 296 67 174 0 -47 96 -241 105 -49 2 -101 2 -115 -1z"></path></g></g><g id="l3yrqTa25L7QR4tVhnDOuTk" fill="rgb(224,224,224)" style="transform: none;"><g style="transform: none;"><path id="pXiU4Kv05" d="M2438 3675 c-187 -98 -490 -130 -740 -77 -85 17 -91 17 -175 0 -48 -10 -122 -28 -166 -41 l-79 -22 -39 -67 c-22 -37 -67 -102 -100 -143 -57 -72 -60 -77 -42 -91 27 -21 103 -60 146 -73 20 -7 37 -17 37 -22 0 -5 5 -9 11 -9 8 0 10 19 5 64 l-6 64 41 36 c73 62 281 125 549 165 262 39 376 46 750 46 229 0 412 -5 490 -13 327 -34 640 -97 640 -129 0 -7 7 -13 15 -13 8 0 15 -9 15 -20 0 -13 7 -20 20 -20 15 0 20 -7 20 -25 0 -22 4 -25 35 -25 33 0 35 2 35 35 0 28 -4 35 -20 35 -15 0 -20 7 -20 25 0 16 -6 25 -15 25 -8 0 -15 9 -15 20 0 11 -7 20 -15 20 -8 0 -15 5 -15 11 0 6 -23 48 -51 93 l-51 83 -72 13 c-69 12 -76 11 -156 -15 -171 -55 -318 -41 -511 47 l-94 42 -190 3 c-185 2 -191 2 -237 -22z"></path><path id="pGaFDWRy3" d="M1550 1110 c0 -11 -4 -20 -10 -20 -5 0 -10 -7 -10 -15 0 -10 11 -15 35 -15 33 0 35 2 35 35 0 31 -3 35 -25 35 -18 0 -25 -5 -25 -20z"></path><path id="pcWUvV3g" d="M3510 1100 c0 -18 7 -20 70 -20 63 0 70 2 70 20 0 18 -7 20 -70 20 -63 0 -70 -2 -70 -20z"></path><path id="pTFbyhDiJ" d="M3350 1094 c-73 -15 -190 -62 -190 -75 0 -5 -7 -9 -15 -9 -8 0 -15 -4 -15 -10 0 -5 -7 -10 -16 -10 -9 0 -18 -9 -21 -20 -3 -11 -13 -20 -22 -20 -24 0 -91 -72 -91 -98 0 -15 -6 -22 -20 -22 -11 0 -23 -7 -27 -16 -3 -9 -16 -27 -29 -41 -13 -14 -26 -35 -30 -47 -4 -11 -10 -23 -14 -26 -4 -3 -14 -18 -23 -35 -15 -27 -16 -28 -17 -7 0 18 -5 22 -35 22 -33 0 -35 -2 -35 -35 0 -33 2 -35 35 -35 28 0 35 -4 35 -20 0 -34 15 -23 45 33 91 168 233 321 358 382 67 32 140 55 230 70 23 4 37 11 37 20 0 19 -51 19 -140 -1z"></path><path id="p10tsWDVUY" d="M1810 1055 c0 -33 2 -35 35 -35 33 0 35 2 35 35 0 33 -2 35 -35 35 -33 0 -35 -2 -35 -35z"></path><path id="p5lh9VVOI" d="M1900 995 c0 -31 3 -35 25 -35 20 0 25 -5 25 -25 0 -20 5 -25 25 -25 22 0 25 -4 25 -35 0 -19 5 -35 10 -35 6 0 10 -9 10 -20 0 -11 4 -20 9 -20 5 0 11 -22 15 -50 6 -45 9 -50 33 -50 14 0 43 5 64 12 35 10 39 14 39 45 0 30 -3 33 -31 33 -37 0 -59 20 -59 54 0 14 -4 26 -10 26 -5 0 -10 9 -10 20 0 15 -7 20 -25 20 -22 0 -25 4 -25 35 0 31 -3 35 -25 35 -20 0 -25 5 -25 25 0 22 -4 25 -35 25 -33 0 -35 -2 -35 -35z"></path><path id="p17Ppfsway" d="M2250 785 c0 -33 2 -35 35 -35 33 0 35 2 35 35 0 33 -2 35 -35 35 -33 0 -35 -2 -35 -35z"></path><path id="p7rUyWcUk" d="M2540 757 c0 -34 2 -37 37 -43 21 -4 44 -13 51 -21 7 -7 29 -13 48 -13 32 0 34 2 34 34 0 34 -13 46 -50 46 -10 0 -20 5 -22 11 -2 6 -25 13 -51 16 l-47 6 0 -36z"></path></g></g><g id="l2sZ88XrjpBoMCSHsDJzwJ9" fill="rgb(255,213,202)" style="transform: none;"><g style="transform: none;"><path id="pf8nA0NSh" d="M2308 3533 c-10 -2 -18 -11 -18 -19 0 -10 14 -14 55 -14 48 0 55 2 55 20 0 17 -6 20 -37 19 -21 -1 -46 -3 -55 -6z"></path><path id="p6Mft3ccM" d="M2860 3520 c0 -18 7 -20 55 -20 40 0 55 4 55 14 0 16 -30 26 -77 26 -26 0 -33 -4 -33 -20z"></path><path id="pHnCGPBNU" d="M2148 3523 c-10 -2 -18 -11 -18 -19 0 -10 13 -14 50 -14 43 0 50 3 50 20 0 16 -6 20 -32 19 -18 -1 -41 -3 -50 -6z"></path><path id="pCskxRJFG" d="M3030 3510 c0 -17 7 -20 50 -20 36 0 50 4 50 14 0 15 -30 26 -72 26 -21 0 -28 -5 -28 -20z"></path><path id="pseWSzG3D" d="M2038 3513 c-10 -2 -18 -11 -18 -19 0 -10 13 -14 45 -14 38 0 45 3 45 20 0 15 -6 20 -27 19 -16 -1 -36 -3 -45 -6z"></path><path id="p19ZGV9itY" d="M3150 3500 c0 -17 7 -20 45 -20 49 0 64 23 23 34 -45 12 -68 7 -68 -14z"></path><path id="p4iMuNn4k" d="M1825 3485 c-231 -38 -355 -70 -355 -92 0 -19 36 -15 185 21 61 14 165 34 232 44 104 14 123 20 123 35 0 22 -9 21 -185 -8z"></path><path id="pCo5nWGMO" d="M3250 3493 c0 -15 19 -21 123 -35 67 -10 172 -30 232 -44 61 -15 127 -29 148 -31 37 -5 37 -5 37 30 0 27 -5 36 -21 40 -20 5 -20 5 -3 -20 16 -25 16 -26 -2 -19 -60 23 -441 96 -503 96 -6 0 -11 -8 -11 -17z"></path><path id="pZf1IQ5I9" d="M1430 3393 c-49 -18 -120 -56 -120 -64 0 -15 67 -10 84 6 8 8 24 15 35 15 16 0 21 6 21 25 0 14 -1 25 -2 24 -2 0 -10 -3 -18 -6z"></path><path id="p121br2WtQ" d="M3820 3305 c0 -32 2 -35 30 -35 27 0 30 -3 30 -33 0 -25 9 -42 38 -70 42 -41 57 -45 66 -21 5 13 9 14 21 4 13 -11 15 -8 15 17 0 38 -64 103 -103 103 -24 0 -27 4 -27 35 0 33 -2 35 -35 35 -33 0 -35 -2 -35 -35z"></path><path id="puRAA4AD9" d="M1277 3302 c-23 -26 -22 -52 3 -52 16 0 20 7 20 35 0 40 -1 41 -23 17z"></path><path id="pHHpujFCm" d="M1260 3218 c0 -39 12 -68 26 -68 10 0 14 13 14 45 0 38 -3 45 -20 45 -14 0 -20 -7 -20 -22z"></path><path id="pdKOVg3lO" d="M2615 3229 c-4 -6 -33 -153 -66 -326 -32 -176 -64 -322 -72 -330 -11 -11 -35 5 -146 98 -133 111 -133 111 -175 105 -63 -11 -75 -9 -111 18 -19 15 -47 26 -64 26 -53 0 -42 -40 69 -243 55 -101 102 -191 106 -201 4 -10 -1 -25 -11 -36 -17 -19 -33 -20 -352 -20 l-334 0 3 -42 3 -42 272 -106 c286 -110 332 -136 318 -179 -3 -12 -112 -107 -241 -212 l-234 -191 0 -44 c0 -44 0 -44 36 -44 20 0 165 38 322 85 158 47 295 85 307 83 14 -2 21 -12 23 -33 1 -16 -22 -154 -53 -304 -30 -151 -55 -290 -55 -309 l0 -33 47 3 47 3 155 252 c86 139 166 262 178 274 l21 22 24 -24 c12 -13 88 -142 167 -287 l145 -262 43 0 43 0 0 46 c0 25 -18 161 -40 302 -23 141 -40 267 -38 280 6 52 20 50 324 -52 160 -53 306 -96 327 -96 l37 0 0 44 0 43 -230 197 c-127 109 -234 205 -239 214 -11 21 2 47 32 64 12 6 150 55 307 109 l285 97 0 43 0 44 -319 7 c-263 6 -322 10 -342 23 -13 8 -24 20 -24 26 0 5 72 133 161 284 133 227 160 280 157 307 -3 31 -5 33 -47 36 -51 4 -68 -9 -116 -84 -37 -58 -74 -87 -126 -102 -21 -6 -87 -51 -160 -111 -67 -55 -126 -101 -131 -101 -23 0 -43 76 -92 358 -31 172 -58 317 -61 322 -8 13 -72 13 -80 -1z"></path><path id="p141XEi6YN" d="M1870 2951 c0 -59 8 -71 46 -71 32 0 34 2 34 33 0 62 -9 77 -46 77 -33 0 -34 -1 -34 -39z"></path><path id="p1H5IU09hP" d="M1568 1134 c-10 -3 -18 -14 -18 -25 0 -21 -16 -26 -23 -6 -3 6 -6 -1 -6 -16 l-1 -28 79 7 c68 5 91 3 155 -17 42 -13 76 -27 76 -31 0 -5 7 -8 15 -8 8 0 15 -4 15 -10 0 -5 7 -10 15 -10 8 0 15 -4 15 -10 0 -5 16 -10 35 -10 33 0 35 -2 35 -35 0 -24 5 -35 15 -35 8 0 15 -9 15 -20 0 -16 7 -20 35 -20 33 0 35 2 35 35 0 24 -5 35 -15 35 -8 0 -15 9 -15 20 0 16 -7 20 -35 20 -33 0 -35 2 -35 35 0 24 -5 35 -15 35 -8 0 -15 5 -15 10 0 6 -7 10 -15 10 -8 0 -15 5 -15 10 0 6 -9 10 -20 10 -11 0 -20 4 -20 10 0 25 -235 61 -292 44z"></path><path id="pensLNq5i" d="M3460 1115 c-8 -2 -48 -9 -87 -15 -40 -7 -73 -16 -73 -21 0 -5 -13 -9 -30 -9 -25 0 -30 -4 -30 -24 l0 -24 55 19 c31 11 90 24 133 30 42 6 92 13 110 15 19 3 32 11 32 19 0 11 -12 15 -47 14 -27 -1 -55 -3 -63 -4z"></path><path id="p15YCEhF39" d="M3590 1106 c0 -15 30 -26 73 -26 20 0 27 5 27 20 0 17 -7 20 -50 20 -36 0 -50 -4 -50 -14z"></path><path id="phxL6n7ex" d="M3140 1010 c0 -5 -7 -10 -15 -10 -8 0 -15 -6 -15 -14 0 -8 -10 -16 -22 -18 -18 -2 -24 -11 -26 -37 l-3 -34 28 22 c15 12 49 36 75 54 26 18 48 35 48 40 0 4 -16 7 -35 7 -19 0 -35 -4 -35 -10z"></path><path id="pZjmxjwz6" d="M2967 863 c-4 -3 -7 -17 -7 -30 0 -16 -6 -23 -20 -23 -17 0 -20 -7 -20 -37 l1 -38 35 40 c19 22 44 52 55 68 l20 27 -29 0 c-16 0 -32 -3 -35 -7z"></path><path id="pAR8pSOjI" d="M2030 823 c0 -55 10 -73 41 -73 20 0 29 -5 29 -16 0 -18 26 -17 143 7 66 13 67 14 67 46 0 31 -2 33 -32 33 -18 0 -60 -7 -93 -15 -33 -8 -63 -14 -67 -15 -3 0 -9 14 -13 30 -6 26 -11 30 -41 30 -30 0 -34 -3 -34 -27z"></path><path id="prn2e4TiR" d="M2400 785 c0 -30 3 -35 23 -35 35 0 177 -34 177 -42 0 -5 14 -8 30 -8 20 0 30 -5 30 -15 0 -8 11 -17 25 -21 14 -3 25 -10 25 -15 0 -5 7 -9 15 -9 8 0 15 -4 15 -10 0 -5 16 -10 35 -10 32 0 35 -2 35 -30 0 -16 4 -30 9 -30 8 0 91 143 91 156 0 2 -11 4 -25 4 -22 0 -25 -4 -25 -35 0 -28 -4 -35 -19 -35 -11 0 -22 -6 -24 -12 -3 -7 -6 2 -6 20 -1 21 -6 32 -16 32 -8 0 -15 5 -15 10 0 6 -5 10 -11 10 -6 0 -17 7 -25 15 -9 8 -29 15 -45 15 -19 0 -29 5 -29 15 0 9 -9 15 -25 15 -14 0 -25 4 -25 8 0 11 -138 42 -185 42 -33 0 -35 -2 -35 -35z"></path></g></g><g id="l2lXD9HpmOWhbqowoBvVlS0" fill="rgb(168,213,239)" style="transform: none;"><g style="transform: none;"><path id="p16KhFWAhc" d="M4216 4194 c-92 -70 -277 -165 -396 -202 -138 -44 -236 -55 -418 -49 -227 7 -346 43 -483 144 -48 35 -64 42 -70 31 -5 -7 -9 -18 -9 -23 0 -20 -89 -156 -150 -229 -61 -74 -115 -118 -204 -167 l-51 -29 43 0 c23 0 42 5 42 10 0 6 11 10 25 10 14 0 25 5 25 10 0 6 7 10 15 10 8 0 15 4 15 9 0 5 9 11 20 14 11 3 20 11 20 19 0 8 23 -7 52 -34 45 -41 58 -48 94 -48 26 0 69 -13 116 -35 212 -97 415 -117 594 -56 49 16 65 17 118 8 l61 -10 52 -85 c50 -79 51 -84 28 -78 -14 4 -25 3 -25 -1 0 -16 130 -179 185 -233 45 -45 57 -52 65 -40 7 11 -2 27 -33 60 -39 42 -39 42 13 -6 82 -77 157 -132 222 -165 129 -65 319 -109 473 -109 91 0 171 29 199 73 34 50 -2 71 -139 81 -317 24 -588 226 -784 586 -22 41 -41 78 -41 82 0 4 26 24 57 45 120 80 225 197 288 322 27 55 58 133 53 136 -2 1 -34 -22 -72 -51z"></path><path id="pjm7nY3QM" d="M1375 3624 c-16 -8 -38 -23 -49 -32 -18 -17 -76 -96 -76 -105 0 -3 37 8 83 23 74 25 197 55 317 78 l45 8 -91 22 c-116 28 -124 28 -124 -2 0 -19 -7 -25 -36 -30 -19 -4 -42 -10 -50 -13 -8 -3 -14 -1 -14 5 0 6 14 13 30 17 21 5 30 13 30 26 0 23 -24 25 -65 3z"></path><path id="p1DWUSe4IL" d="M626 1703 c-49 -14 -136 -67 -136 -81 0 -4 49 -19 108 -33 232 -57 402 -140 518 -254 72 -71 117 -146 129 -215 6 -33 4 -37 -30 -53 -53 -25 -133 -105 -161 -159 -30 -60 -47 -134 -39 -176 l6 -33 43 38 c219 191 504 208 727 44 107 -79 171 -172 204 -296 16 -65 20 -198 6 -257 l-9 -38 28 20 c76 54 125 179 118 297 -5 72 -5 73 21 81 14 4 67 7 116 7 145 -1 310 -63 434 -163 29 -24 56 -40 60 -35 4 4 13 28 20 53 7 25 26 77 43 115 l29 70 -38 32 c-52 45 -154 97 -243 125 -65 20 -94 23 -225 22 -106 -1 -164 -5 -197 -16 l-46 -16 -17 50 c-36 110 -115 197 -233 255 -73 36 -81 38 -194 42 -101 3 -118 1 -118 -12 0 -8 6 -18 13 -20 6 -3 2 -6 -10 -6 -18 -1 -25 10 -44 67 -47 144 -126 270 -229 365 -157 146 -479 234 -654 180z m1042 -600 c-10 -2 -28 -2 -40 0 -13 2 -5 4 17 4 22 1 32 -1 23 -4z"></path></g></g><g id="l4aEiEwCLjz8dsffJqZJpmh" fill="rgb(130,174,192)" style="transform: none;"><g style="transform: none;"><path id="pCGQVhhdr" d="M2624 3789 c-10 -12 -55 -43 -99 -70 l-79 -49 188 0 188 0 -62 46 c-34 26 -68 57 -77 70 -19 30 -34 30 -59 3z"></path><path id="pxBidf5ss" d="M1371 3618 c-36 -18 -110 -97 -111 -119 0 -3 49 9 109 27 60 18 150 41 200 50 50 10 88 21 84 25 -12 10 -159 39 -202 39 -20 0 -56 -10 -80 -22z"></path><path id="pBODa4EtO" d="M3601 3616 c-27 -15 -27 -15 43 -31 28 -6 29 -6 14 16 -19 29 -27 31 -57 15z"></path></g></g><g id="l7iNgldBoLcKJV2ptwlifaA" fill="rgb(255,109,64)" style="transform: none;"><g style="transform: none;"><path id="piSUNTdPS" d="M1880 2935 c0 -19 5 -35 10 -35 6 0 10 -13 10 -30 0 -23 4 -30 20 -30 16 0 20 -7 20 -35 0 -28 4 -35 20 -35 13 0 20 -7 20 -20 0 -11 7 -20 15 -20 8 0 15 -5 15 -12 0 -6 2 -9 5 -6 3 3 -4 23 -17 44 l-23 39 37 -28 c42 -33 95 -44 136 -29 21 7 33 7 41 -1 8 -8 11 -4 11 16 l0 27 -72 -3 c-50 -1 -73 2 -75 11 -3 6 -13 12 -24 12 -12 0 -19 7 -19 20 0 13 -7 20 -20 20 -16 0 -20 7 -20 35 0 19 -4 35 -10 35 -5 0 -10 14 -10 30 0 28 -3 30 -35 30 -33 0 -35 -2 -35 -35z"></path><path id="p30rZ5CXe" d="M2400 2919 c-19 -5 -54 -17 -77 -25 -53 -19 -54 -31 -17 -177 25 -101 26 -104 77 -145 104 -85 127 -70 160 105 l24 122 -36 66 c-39 71 -50 76 -131 54z"></path><path id="p2BWXEfb0" d="M2822 2780 l-62 -110 14 -61 c17 -76 42 -104 84 -94 16 3 72 41 124 84 74 62 96 86 102 111 10 54 7 66 -29 104 -19 21 -35 41 -35 46 0 12 -58 30 -99 30 -35 0 -37 -2 -99 -110z"></path><path id="paej1cpIi" d="M3158 2773 c-23 -6 -24 -43 -2 -43 22 0 84 30 84 41 0 9 -51 10 -82 2z"></path><path id="p1ATOaNoHk" d="M1906 2573 c-37 -54 -46 -76 -46 -110 0 -40 4 -45 78 -107 l77 -66 72 0 c66 0 73 2 93 27 29 37 23 61 -45 187 -44 83 -61 105 -90 119 -67 32 -88 25 -139 -50z"></path><path id="pfZdiwRJE" d="M3226 2506 c-73 -31 -81 -37 -114 -91 -44 -72 -48 -119 -12 -146 20 -15 46 -19 131 -20 l107 -2 61 44 c74 54 77 72 26 177 l-34 72 -43 -1 c-24 0 -78 -15 -122 -33z"></path><path id="p1FLiSEErP" d="M1847 2066 l-87 -31 0 -47 c0 -26 5 -70 11 -98 l11 -50 110 0 c105 0 113 2 146 26 39 31 65 84 56 118 -8 33 -50 69 -109 93 l-51 20 -87 -31z"></path><path id="puStKqWYs" d="M3229 2024 c-75 -27 -99 -52 -99 -102 0 -33 8 -44 73 -105 l72 -67 94 2 94 3 14 40 c8 22 17 70 20 106 5 59 4 67 -13 72 -11 3 -58 21 -105 40 l-86 34 -64 -23z"></path><path id="pKWO2vDhA" d="M2136 1644 c-43 -13 -80 -25 -81 -26 -87 -122 -87 -146 -3 -222 78 -71 112 -75 180 -19 45 36 46 37 63 134 19 109 15 136 -22 150 -33 12 -45 11 -137 -17z"></path><path id="pJc8dCwI" d="M2931 1614 c-24 -31 -25 -39 -10 -120 9 -52 17 -66 67 -117 50 -51 61 -57 97 -57 32 0 51 9 98 45 52 41 57 49 57 85 0 25 -10 55 -26 83 -25 41 -32 45 -123 75 -118 39 -134 39 -160 6z"></path><path id="p19d1SeWU2" d="M2553 1508 c-11 -13 -31 -40 -45 -60 l-24 -37 15 -110 15 -111 111 0 111 0 11 81 11 81 -45 79 c-24 43 -53 83 -63 89 -32 17 -75 12 -97 -12z"></path></g></g><g id="l5eyD9eehVlYKAxXVAUiOut" fill="rgb(253,100,64)" style="transform: none;"><g style="transform: none;"><path id="pnvYaCST5" d="M2358 3533 c-10 -2 -18 -11 -18 -19 0 -11 15 -14 60 -14 53 0 60 2 60 20 0 17 -6 20 -42 19 -24 -1 -51 -3 -60 -6z"></path><path id="p3PJGpJ1q" d="M2800 3520 c0 -18 7 -20 60 -20 44 0 60 4 60 14 0 16 -30 26 -82 26 -31 0 -38 -4 -38 -20z"></path><path id="pD0QIB678" d="M2188 3523 c-10 -2 -18 -11 -18 -19 0 -10 13 -14 45 -14 38 0 45 3 45 20 0 15 -6 20 -27 19 -16 -1 -36 -3 -45 -6z"></path><path id="p1DOCFm7hr" d="M3000 3510 c0 -17 7 -20 45 -20 49 0 64 23 23 34 -45 12 -68 7 -68 -14z"></path><path id="pZFXuhAIE" d="M2068 3513 c-36 -9 -20 -33 22 -33 33 0 40 3 40 20 0 20 -20 24 -62 13z"></path><path id="pi6y6lVGU" d="M3130 3500 c0 -17 7 -20 40 -20 45 0 57 23 18 34 -42 11 -58 7 -58 -14z"></path><path id="p12z3X2NMV" d="M1890 3494 c-156 -23 -200 -34 -200 -51 0 -17 -6 -17 208 13 112 16 132 21 132 36 0 21 -8 21 -140 2z"></path><path id="pZmDBZvGO" d="M3230 3492 c0 -15 20 -20 133 -36 213 -30 207 -30 207 -13 0 18 -45 29 -210 52 -132 18 -130 18 -130 -3z"></path><path id="prPA7ify1" d="M1608 3443 c-33 -8 -20 -33 17 -33 28 0 35 4 35 20 0 20 -14 23 -52 13z"></path><path id="pg5zth1A1" d="M3600 3430 c0 -16 7 -20 35 -20 40 0 49 24 13 34 -38 10 -48 7 -48 -14z"></path><path id="p19WicuBJH" d="M1481 3407 c-82 -28 -96 -52 -25 -44 27 3 50 10 52 16 2 6 19 11 38 11 27 0 34 4 34 20 0 25 -17 25 -99 -3z"></path><path id="pyGYXJi2E" d="M3680 3410 c0 -16 7 -20 35 -20 40 0 49 24 13 34 -38 10 -48 7 -48 -14z"></path><path id="p1GY19xAvB" d="M3780 3356 c0 -33 2 -36 31 -36 l30 0 -21 30 c-31 44 -40 45 -40 6z"></path><path id="p15xr5YAao" d="M1303 3325 l-28 -24 38 -1 c33 0 37 3 37 25 0 31 -11 32 -47 0z"></path><path id="ptKI4T2uM" d="M1260 3238 c0 -30 13 -58 26 -58 9 0 14 12 14 35 0 28 -4 35 -20 35 -11 0 -20 -6 -20 -12z"></path><path id="pWb0B3yQI" d="M2270 2971 c-12 -65 -11 -76 12 -170 l26 -101 -24 0 c-17 0 -24 6 -24 20 0 24 -17 33 -56 28 -26 -3 -22 -8 66 -82 52 -43 96 -74 98 -68 2 8 -34 166 -54 234 -5 16 34 35 117 56 l36 9 44 -80 44 -80 16 89 c33 180 33 174 11 174 -16 0 -21 -11 -31 -75 -7 -41 -17 -75 -22 -75 -5 0 -9 10 -9 21 0 12 -16 52 -36 89 l-37 67 -60 7 c-109 11 -102 15 -117 -63z"></path><path id="p1A1CgaJtj" d="M2710 2978 c0 -7 14 -89 30 -183 16 -93 30 -174 30 -180 0 -5 32 46 71 115 39 69 73 127 74 128 11 12 73 -23 89 -49 10 -16 26 -35 36 -41 17 -11 17 -15 3 -60 -8 -27 -13 -53 -11 -58 2 -5 27 11 56 35 30 25 60 45 68 45 8 0 14 7 14 15 0 10 -11 15 -35 15 -29 0 -35 -4 -36 -22 -1 -21 -2 -21 -6 -3 -2 11 -6 30 -9 43 -2 12 -11 22 -19 22 -8 0 -15 7 -15 15 0 8 -9 15 -20 15 -14 0 -20 7 -20 24 0 13 -7 40 -15 60 -13 31 -20 36 -49 36 -31 0 -36 -4 -47 -35 -7 -19 -16 -35 -20 -35 -4 0 -11 -10 -15 -22 -3 -12 -13 -28 -20 -36 -8 -7 -14 -29 -14 -48 0 -27 -4 -34 -19 -34 -24 0 -26 5 -47 139 -15 94 -21 111 -36 111 -10 0 -18 -6 -18 -12z"></path><path id="pw9xhhG6t" d="M1870 2929 c0 -49 16 -69 55 -69 33 0 35 2 35 33 -1 34 -19 67 -39 67 -7 0 -9 -10 -6 -27 l5 -28 -12 28 c-16 37 -38 35 -38 -4z"></path><path id="p1ChzFFnzl" d="M3360 2936 c0 -7 9 -16 21 -19 12 -3 19 -9 16 -14 -208 -355 -277 -476 -275 -478 2 -2 52 17 113 41 60 24 113 44 117 44 5 0 24 -32 43 -72 l35 -72 -76 -55 c-88 -63 -85 -69 34 -70 66 -1 72 1 72 19 0 17 -7 20 -47 21 -27 1 -38 4 -25 6 12 2 22 11 22 19 0 8 9 14 20 14 11 0 20 5 20 10 0 6 4 10 10 10 5 0 35 19 65 43 48 37 55 46 55 77 0 19 -12 58 -27 87 -24 48 -29 53 -60 53 -37 0 -273 -88 -273 -101 0 -5 -4 -9 -10 -9 -5 0 -10 7 -10 15 0 8 7 15 15 15 9 0 15 9 15 25 0 15 6 25 14 25 8 0 18 10 22 22 3 12 13 28 20 36 8 7 14 24 14 38 0 14 6 24 14 24 8 0 18 10 22 22 3 12 13 28 20 36 8 7 14 24 14 38 0 15 6 24 15 24 9 0 15 9 15 25 0 16 6 25 15 25 11 0 15 12 15 45 0 45 0 45 -35 45 -23 0 -35 -5 -35 -14z"></path><path id="p1cquHzq0" d="M1940 2795 c0 -28 4 -35 20 -35 15 0 20 -7 20 -30 0 -41 20 -80 42 -80 14 0 18 -8 18 -35 0 -28 5 -37 30 -50 51 -26 54 -35 -63 175 -19 34 -24 50 -14 41 15 -12 17 -10 17 18 0 29 -2 31 -35 31 -33 0 -35 -2 -35 -35z"></path><path id="pms1JyQws" d="M1775 2648 c-24 -37 -35 -64 -35 -89 0 -33 7 -43 69 -98 38 -34 78 -61 89 -61 14 0 22 -8 24 -22 2 -17 11 -24 31 -26 19 -2 27 -9 27 -22 0 -23 4 -26 60 -35 l44 -7 -97 81 c-53 45 -97 87 -97 94 0 7 21 42 46 79 30 44 50 65 60 61 9 -3 14 2 14 16 0 28 -104 81 -159 81 -38 0 -43 -4 -76 -52z"></path><path id="pcfIEnBr0" d="M1470 2295 c0 -24 5 -35 15 -35 9 0 12 6 9 15 -5 13 8 15 80 15 79 0 86 2 86 20 0 19 -7 20 -95 20 l-95 0 0 -35z"></path><path id="pnQy6JKqo" d="M1510 2235 c0 -20 5 -25 25 -25 14 0 25 -4 25 -8 0 -10 87 -42 113 -42 9 0 17 -4 17 -8 0 -10 87 -42 113 -42 9 0 17 -4 17 -10 0 -5 6 -10 14 -10 46 0 10 -22 -100 -61 l-126 -44 7 -65 c4 -36 9 -68 12 -72 2 -5 51 -8 109 -8 86 0 104 3 104 15 0 8 -6 15 -14 15 -9 0 -18 19 -25 50 -18 85 -21 82 85 119 67 24 92 37 81 42 -13 8 -197 79 -394 154 l-63 24 0 -24z"></path><path id="p12UHUgBpm" d="M3507 2121 c-141 -49 -259 -90 -262 -92 -2 -3 48 -25 111 -49 l115 -45 -6 -35 c-13 -72 -29 -113 -47 -118 -10 -2 -18 -11 -18 -18 0 -11 23 -14 110 -14 l109 0 11 41 c6 22 10 58 8 81 l-3 40 -94 39 c-51 21 -102 39 -112 39 -11 0 -19 4 -19 9 0 6 -19 14 -42 19 -24 6 -34 10 -23 11 11 1 111 31 222 68 185 62 203 70 203 90 0 13 -1 23 -2 22 -2 0 -119 -40 -261 -88z"></path><path id="p1Ey7hzSch" d="M1978 1863 c-19 -3 -28 -10 -28 -23 0 -13 -8 -20 -27 -22 -20 -2 -29 -9 -31 -25 -3 -17 -10 -23 -28 -23 -17 0 -24 -5 -24 -20 0 -15 -7 -20 -26 -20 -17 0 -28 -6 -31 -19 -3 -11 -15 -21 -27 -23 -13 -2 -22 -11 -24 -25 -3 -17 -10 -23 -28 -23 -17 0 -24 -6 -24 -19 0 -14 -8 -21 -27 -23 -23 -3 -29 -9 -34 -41 -5 -33 -4 -36 10 -24 9 8 105 87 214 176 110 88 191 160 180 160 -10 -1 -30 -4 -45 -6z"></path><path id="p1AoMQWglT" d="M3252 1779 c2 -4 77 -72 168 -149 141 -121 165 -138 168 -120 6 35 -5 50 -37 50 -25 0 -30 4 -33 28 -2 22 -8 28 -35 30 -26 3 -32 8 -35 30 -2 22 -9 28 -35 30 -26 3 -32 8 -35 30 -2 22 -9 28 -35 30 -24 2 -33 8 -33 21 0 13 -9 20 -30 23 -17 3 -29 1 -28 -3z"></path><path id="pS3xTEwsp" d="M1843 1557 c-150 -45 -233 -75 -233 -84 0 -23 50 -14 233 41 97 29 177 49 177 45 0 -5 -4 -9 -10 -9 -5 0 -10 -6 -10 -14 0 -8 -4 -16 -8 -18 -5 -1 -27 -31 -50 -65 -57 -85 -56 -109 9 -167 71 -64 100 -63 185 6 36 29 64 59 64 70 0 10 7 18 15 18 11 0 14 -7 10 -22 -34 -152 -65 -347 -60 -379 7 -38 8 -39 46 -39 29 0 41 5 46 17 4 10 13 24 20 31 7 7 13 20 13 28 0 8 5 14 10 14 6 0 10 11 10 25 0 16 6 25 15 25 8 0 15 7 15 15 0 8 4 15 10 15 5 0 12 11 16 25 3 14 10 25 15 25 5 0 9 11 9 25 0 16 6 25 15 25 8 0 15 7 15 15 0 8 4 15 10 15 5 0 12 11 16 25 3 14 10 25 15 25 5 0 9 11 9 25 0 22 19 38 21 18 0 -5 10 -71 23 -148 l22 -140 91 -3 91 -3 11 83 c20 146 23 158 32 158 5 0 9 -9 9 -20 0 -29 21 -70 37 -70 7 0 13 -9 13 -20 0 -32 22 -70 42 -70 13 0 18 -8 18 -29 0 -42 10 -61 31 -61 15 0 19 -7 19 -31 0 -40 20 -59 64 -59 29 0 37 4 42 24 3 13 -8 110 -25 216 -17 105 -31 195 -31 200 0 6 9 10 20 10 13 0 20 -7 20 -18 0 -10 29 -46 65 -80 56 -54 69 -62 103 -62 29 0 50 9 85 36 42 33 47 41 47 77 0 28 -11 57 -37 101 -20 33 -41 63 -45 64 -4 2 -8 10 -8 17 0 10 47 -2 162 -41 163 -54 218 -65 218 -41 0 7 -92 43 -233 90 -128 42 -236 77 -240 77 -4 0 11 -29 33 -65 22 -36 40 -70 40 -75 0 -11 -111 -100 -125 -100 -5 0 -45 35 -88 78 -78 77 -78 77 -72 42 23 -140 75 -478 75 -492 0 -49 -37 2 -145 198 -129 234 -127 232 -140 111 l-7 -67 -83 0 -82 0 -13 105 c-7 58 -16 108 -20 110 -4 2 -69 -97 -146 -221 -125 -204 -155 -246 -169 -232 -3 3 17 113 44 246 26 133 46 242 44 242 -3 0 -32 -22 -65 -50 -33 -27 -63 -50 -68 -50 -4 0 -36 26 -70 58 l-63 58 40 60 c57 85 57 84 36 83 -10 -1 -123 -33 -250 -72z"></path><path id="p17up6YcW6" d="M1710 1116 c0 -13 28 -26 58 -26 6 0 12 9 12 20 0 16 -7 20 -35 20 -23 0 -35 -5 -35 -14z"></path><path id="pWUdkOOzT" d="M3393 1108 c-35 -5 -63 -14 -63 -19 0 -5 -16 -9 -35 -9 -19 0 -35 -4 -35 -10 0 -5 -9 -10 -20 -10 -29 0 -70 -21 -70 -37 0 -7 -11 -13 -25 -13 -16 0 -25 -6 -25 -15 0 -8 -9 -15 -20 -15 -16 0 -20 -7 -20 -31 l0 -31 49 36 c94 69 196 106 364 131 23 4 37 11 37 20 0 17 -39 18 -137 3z"></path><path id="pRmIB31pF" d="M3630 1106 c0 -20 60 -32 71 -15 15 24 10 29 -31 29 -28 0 -40 -4 -40 -14z"></path><path id="p1DtN0ujc7" d="M2000 930 c31 -44 40 -45 40 -6 0 33 -2 36 -31 36 l-30 0 21 -30z"></path><path id="pJH6a57D1" d="M2950 825 c0 -18 -5 -25 -20 -25 -11 0 -20 -7 -20 -15 0 -8 -4 -15 -10 -15 -5 0 -10 -7 -10 -15 0 -8 -4 -15 -10 -15 -5 0 -10 -11 -10 -25 0 -15 -6 -25 -14 -25 -17 0 -26 -22 -26 -61 0 -40 12 -36 40 13 24 43 81 129 121 181 l21 27 -31 0 c-26 0 -31 -4 -31 -25z"></path><path id="pV692SaW2" d="M2153 803 c-15 -3 -23 -12 -23 -24 0 -22 6 -23 66 -8 82 21 44 49 -43 32z"></path><path id="p8t89cMeR" d="M2520 786 c0 -13 28 -26 58 -26 6 0 12 9 12 20 0 16 -7 20 -35 20 -23 0 -35 -5 -35 -14z"></path></g></g><g id="l1fHFkmcoCyKkEFoDNaBxyA" fill="rgb(249,86,61)" style="transform: none;"><g style="transform: none;"><path id="pUjAGvfIV" d="M2418 3533 c-33 -8 -20 -33 17 -33 28 0 35 4 35 20 0 20 -14 23 -52 13z"></path><path id="p5GzjirWo" d="M2790 3520 c0 -16 7 -20 35 -20 40 0 49 24 13 34 -38 10 -48 7 -48 -14z"></path><path id="p1GtYAeQIM" d="M2088 3513 c-33 -8 -20 -33 17 -33 28 0 35 4 35 20 0 20 -14 23 -52 13z"></path><path id="pWiIZHdPr" d="M3120 3500 c0 -16 7 -20 35 -20 40 0 49 24 13 34 -38 10 -48 7 -48 -14z"></path><path id="pewnT1Nvp" d="M1988 3503 c-33 -8 -20 -33 17 -33 28 0 35 4 35 20 0 20 -14 23 -52 13z"></path><path id="p5Pe9Nu0t" d="M3220 3490 c0 -16 7 -20 35 -20 40 0 49 24 13 34 -38 10 -48 7 -48 -14z"></path><path id="puZ1uuMCM" d="M1768 3473 c-33 -8 -20 -33 17 -33 28 0 35 4 35 20 0 20 -14 23 -52 13z"></path><path id="pSUWbwwFZ" d="M3440 3460 c0 -16 7 -20 35 -20 40 0 49 24 13 34 -38 10 -48 7 -48 -14z"></path><path id="pFjHkCaXE" d="M1658 3453 c-33 -8 -20 -33 17 -33 28 0 35 4 35 20 0 20 -14 23 -52 13z"></path><path id="pe0UU5ZD0" d="M3550 3440 c0 -16 7 -20 35 -20 40 0 49 24 13 34 -38 10 -48 7 -48 -14z"></path><path id="pJLsjHAbE" d="M1568 3433 c-33 -8 -20 -33 17 -33 28 0 35 4 35 20 0 20 -14 23 -52 13z"></path><path id="pb9DKoakv" d="M3640 3420 c0 -16 7 -20 35 -20 40 0 49 24 13 34 -38 10 -48 7 -48 -14z"></path><path id="pxPcWB24V" d="M3750 3385 c0 -21 5 -25 30 -25 30 0 30 0 14 25 -9 14 -23 25 -30 25 -8 0 -14 -10 -14 -25z"></path><path id="pWVWu87lv" d="M1362 3359 c-34 -17 -62 -35 -62 -40 0 -5 16 -9 35 -9 19 0 35 4 35 9 0 5 14 11 30 15 24 4 30 11 30 31 0 14 -2 25 -3 25 -2 0 -32 -14 -65 -31z"></path><path id="p9Zihpkpv" d="M3810 3318 c0 -36 2 -38 30 -38 28 0 30 -3 30 -35 0 -32 2 -35 31 -35 l30 0 -20 28 c-11 15 -39 47 -60 72 l-40 45 -1 -37z"></path><path id="p1CelqyRT9" d="M1260 3248 c0 -30 13 -58 26 -58 9 0 14 12 14 35 0 28 -4 35 -20 35 -11 0 -20 -6 -20 -12z"></path><path id="p197qmmc7a" d="M2606 3218 c-3 -13 -19 -95 -36 -183 -17 -87 -32 -160 -34 -162 -1 -2 -13 20 -26 47 -13 28 -27 50 -32 50 -4 0 -8 6 -8 13 0 8 -8 24 -19 35 -15 18 -29 22 -80 22 -45 0 -61 -4 -61 -14 0 -15 30 -26 75 -26 29 0 35 -7 95 -120 36 -66 67 -120 70 -120 3 0 23 91 44 203 22 111 43 213 48 226 13 35 26 16 38 -54 25 -141 32 -165 46 -165 19 0 18 25 -6 155 -11 60 -20 110 -20 112 0 2 -20 3 -45 3 -38 0 -45 -3 -49 -22z"></path><path id="p1Dknc4kvI" d="M2266 2941 c-6 -53 5 -133 30 -213 4 -14 -1 -18 -25 -18 -25 0 -30 4 -33 28 -3 23 -8 27 -40 30 -22 2 -38 -1 -38 -7 0 -6 3 -11 8 -11 4 0 50 -36 102 -80 52 -43 96 -77 98 -76 1 2 -15 74 -37 161 -31 123 -37 163 -30 188 13 46 11 57 -10 57 -15 0 -20 -10 -25 -59z"></path><path id="p26qGkVwY" d="M1860 2945 c0 -24 5 -35 15 -35 10 0 15 -10 15 -30 0 -23 4 -30 20 -30 16 0 20 -7 20 -35 0 -19 4 -35 9 -35 5 0 11 -13 15 -30 4 -24 11 -30 31 -30 30 0 31 5 5 48 -11 18 -20 36 -20 40 0 4 5 -1 11 -10 15 -26 49 -43 49 -24 0 8 -7 21 -15 30 -8 8 -15 22 -15 30 0 9 -8 16 -20 16 -16 0 -20 7 -20 35 0 24 -5 35 -15 35 -10 0 -15 10 -15 30 0 28 -3 30 -35 30 -33 0 -35 -2 -35 -35z m60 -26 c9 -31 8 -32 -5 -15 -8 11 -15 29 -15 40 0 26 9 16 20 -25z"></path><path id="pQ03uEQPn" d="M3340 2946 c0 -8 -10 -16 -22 -18 -19 -2 -24 -10 -26 -40 -2 -21 -1 -38 3 -38 3 0 19 16 36 35 29 32 69 47 69 26 0 -5 -29 -59 -65 -120 -36 -60 -65 -112 -65 -115 0 -3 11 -6 25 -6 20 0 25 5 25 25 0 16 6 25 15 25 10 0 15 11 15 35 0 28 4 35 20 35 15 0 20 7 20 25 0 16 6 25 15 25 12 0 15 13 15 60 l0 60 -40 0 c-28 0 -40 -4 -40 -14z"></path><path id="phqq8V5nn" d="M2720 2932 c0 -9 49 -292 53 -305 1 -5 25 31 52 80 121 216 123 219 134 192 9 -23 10 -23 10 9 1 30 -1 32 -33 32 -29 0 -36 -5 -47 -32 -7 -18 -19 -39 -26 -46 -7 -7 -13 -24 -13 -38 0 -14 -6 -24 -14 -24 -13 0 -32 -36 -38 -75 -2 -11 -12 33 -23 98 -16 99 -22 117 -37 117 -10 0 -18 -4 -18 -8z"></path><path id="pzUvWrKg5" d="M1608 2756 c-48 -75 -42 -93 66 -185 53 -46 103 -81 115 -81 14 0 21 -6 21 -18 0 -24 19 -42 46 -42 16 0 24 -7 26 -22 2 -16 11 -24 30 -26 19 -2 28 -10 30 -25 2 -16 11 -23 31 -25 19 -2 27 -9 27 -23 0 -15 7 -19 37 -19 45 0 55 -11 -129 143 -70 59 -130 112 -133 118 -8 12 60 119 75 119 6 0 64 -27 130 -60 66 -33 122 -60 124 -60 2 0 -14 34 -37 75 -42 79 -57 91 -57 50 0 -14 -2 -25 -5 -25 -3 0 -73 34 -155 75 -182 91 -203 94 -242 31z"></path><path id="pz0G6fBPr" d="M3054 2761 c3 -5 -1 -32 -10 -61 -8 -28 -14 -53 -12 -55 2 -2 26 17 53 41 43 37 47 44 28 44 -16 0 -23 6 -23 20 0 14 -7 20 -21 20 -11 0 -18 -4 -15 -9z"></path><path id="pzrIPT0dU" d="M3455 2604 c-104 -41 -191 -80 -193 -85 -7 -18 -42 -9 -42 11 0 11 7 20 15 20 10 0 15 11 15 35 0 60 -7 52 -104 -117 l-27 -46 183 74 c101 41 186 74 189 74 12 0 62 -111 53 -119 -11 -10 -209 -158 -245 -183 l-24 -17 43 0 c31 -1 42 3 42 14 0 8 9 15 20 15 11 0 20 5 20 10 0 6 7 10 15 10 9 0 18 7 21 15 4 8 12 15 20 15 8 0 14 7 14 15 0 8 7 15 16 15 9 0 72 41 140 92 138 103 143 112 104 188 -17 34 -25 40 -53 40 -17 0 -117 -34 -222 -76z"></path><path id="p13Irl1hAc" d="M1600 2316 c0 -20 32 -26 148 -26 95 0 102 1 102 20 0 19 -7 20 -125 20 -100 0 -125 -3 -125 -14z"></path><path id="p1Cgwj64vE" d="M1460 2266 c0 -35 13 -46 51 -46 10 0 19 -4 19 -10 0 -5 16 -10 35 -10 51 0 43 17 -21 45 -41 18 -55 29 -50 40 4 10 -1 15 -14 15 -16 0 -20 -7 -20 -34z"></path><path id="p7frEDeSr" d="M3400 2266 c0 -18 32 -26 113 -26 60 0 67 2 67 20 0 19 -7 20 -90 20 -70 0 -90 -3 -90 -14z"></path><path id="p5ajvAaCZ" d="M3730 2256 c0 -7 9 -16 20 -19 11 -3 20 -10 20 -16 0 -6 -9 -15 -20 -21 -31 -16 -24 -30 15 -30 l35 0 0 50 0 50 -35 0 c-23 0 -35 -5 -35 -14z"></path><path id="pToyXtcOi" d="M1660 2175 c0 -22 4 -25 36 -25 44 0 42 18 -4 37 -31 13 -32 12 -32 -12z"></path><path id="pAYdw12i1" d="M1790 2125 c0 -22 4 -25 36 -25 44 0 42 18 -4 37 -31 13 -32 12 -32 -12z"></path><path id="p12OSQunxo" d="M3367 2070 c-60 -21 -111 -40 -113 -42 -2 -2 76 -35 172 -73 97 -39 178 -75 181 -81 8 -21 -17 -94 -32 -94 -8 0 -15 -7 -15 -15 0 -13 21 -15 129 -15 125 0 129 1 135 23 12 44 6 64 -21 76 -87 40 -376 151 -393 151 -11 0 -20 4 -20 9 0 5 -8 11 -17 13 -10 2 10 12 45 22 53 16 62 23 62 43 0 12 -1 23 -2 22 -2 0 -52 -17 -111 -39z"></path><path id="p2wWIwq6K" d="M1705 2023 c-116 -41 -226 -80 -245 -87 -37 -14 -47 -37 -36 -82 l6 -24 235 0 c227 0 235 1 235 20 0 18 -8 20 -122 22 l-123 3 -5 40 -5 40 169 61 c165 60 168 61 136 73 -18 6 -33 11 -34 10 -1 0 -95 -34 -211 -76z"></path><path id="pjR2SAWJC" d="M1960 1850 c0 -15 -7 -20 -25 -20 -20 0 -25 -5 -25 -25 0 -21 -5 -25 -30 -25 -23 0 -30 -4 -30 -20 0 -15 -7 -20 -25 -20 -18 0 -25 -5 -25 -20 0 -15 -7 -20 -25 -20 -20 0 -25 -5 -25 -25 0 -21 -5 -25 -30 -25 -23 0 -30 -4 -30 -20 0 -15 -7 -20 -25 -20 -18 0 -25 -5 -25 -20 0 -15 -7 -20 -25 -20 -28 0 -45 -25 -45 -69 0 -29 3 -31 35 -31 19 0 35 5 35 10 0 6 -7 10 -16 10 -39 0 5 46 190 197 110 89 204 167 210 173 7 7 -2 10 -27 10 -30 0 -37 -4 -37 -20z"></path><path id="pasevPsAA" d="M3429 1625 c168 -144 204 -185 166 -185 -8 0 -15 -4 -15 -10 0 -5 16 -10 35 -10 34 0 35 1 35 38 0 45 -14 62 -51 62 -23 0 -28 5 -31 28 -2 22 -8 28 -35 30 -26 3 -32 8 -35 30 -2 22 -9 28 -35 30 -27 3 -33 7 -33 28 0 21 -5 24 -35 24 -32 0 -35 2 -35 30 0 28 -3 30 -35 30 -24 0 -35 5 -35 15 0 8 -9 15 -21 15 -14 0 38 -50 160 -155z"></path><path id="pNMQzlLPK" d="M2070 1623 c-19 -8 -35 -24 -43 -43 -4 -12 -6 -11 -6 3 -1 18 -12 21 -48 11 -34 -9 -29 -34 7 -34 17 0 30 -4 30 -10 0 -5 -4 -10 -10 -10 -5 0 -10 -7 -10 -15 0 -8 -4 -15 -10 -15 -5 0 -10 -7 -10 -15 0 -8 -4 -15 -9 -15 -4 0 -45 -55 -90 -123 -96 -145 -103 -177 -48 -227 23 -21 27 -29 15 -30 -9 0 -18 4 -20 10 -3 11 -94 30 -139 30 -44 0 -37 -28 9 -35 75 -11 140 -36 201 -75 l61 -40 0 30 c0 20 -5 30 -15 30 -8 0 -15 5 -15 10 0 6 -5 10 -11 10 -6 0 -17 7 -25 15 -14 13 -13 15 8 15 24 0 218 153 218 171 0 5 6 9 13 9 19 0 47 33 47 53 0 11 8 17 23 17 28 0 47 17 47 42 0 10 6 18 14 18 15 0 32 37 23 47 -3 3 -57 -38 -119 -91 -62 -53 -116 -96 -119 -96 -4 0 -30 21 -58 46 l-50 45 89 135 c83 124 91 143 50 127z"></path><path id="pHYPHl5wV" d="M3140 1585 c0 -3 34 -61 75 -129 41 -68 75 -128 75 -133 0 -12 -88 -83 -102 -83 -5 0 -22 12 -37 28 -57 56 -61 58 -61 23 0 -26 4 -31 25 -31 19 0 25 -5 25 -22 0 -15 29 -52 82 -106 91 -93 98 -95 171 -45 55 38 52 74 -19 193 -30 52 -59 97 -63 100 -5 3 -11 15 -15 28 -4 12 -11 22 -16 22 -4 0 -11 11 -14 25 -4 14 -11 25 -16 25 -6 0 -10 7 -10 15 0 8 -7 15 -15 15 -9 0 -15 9 -15 23 0 22 -9 29 -62 55 -5 2 -8 0 -8 -3z"></path><path id="poeCN6kwm" d="M1868 1563 c-33 -8 -20 -33 17 -33 28 0 35 4 35 20 0 20 -14 23 -52 13z"></path><path id="p9z1auT6e" d="M1768 1533 c-33 -8 -20 -33 17 -33 28 0 35 4 35 20 0 20 -14 23 -52 13z"></path><path id="pebW2ige9" d="M1668 1503 c-33 -8 -20 -33 17 -33 28 0 35 4 35 20 0 20 -14 23 -52 13z"></path><path id="pq0bAThqz" d="M2925 1475 c27 -136 80 -507 74 -516 -10 -17 -25 -3 -55 51 -15 28 -31 50 -36 50 -4 0 -8 -16 -8 -35 0 -28 4 -35 20 -35 16 0 20 -7 20 -35 0 -32 3 -35 28 -35 55 0 72 10 72 42 0 25 -52 375 -64 431 -2 9 0 17 5 17 5 0 9 -11 9 -24 0 -31 22 -48 56 -44 25 3 24 6 -50 83 -68 71 -76 77 -71 50z"></path><path id="pyoJXYx9O" d="M2458 1360 c-27 -43 -48 -80 -48 -84 0 -3 11 -6 25 -6 20 0 25 5 25 25 0 38 28 31 35 -7 3 -18 16 -107 29 -198 14 -91 28 -184 32 -208 l7 -43 66 3 66 3 21 150 c12 83 24 176 28 208 7 52 10 57 32 57 13 0 24 2 24 5 0 2 -15 32 -34 66 l-33 60 -12 -80 c-6 -45 -16 -117 -22 -161 l-11 -81 -61 3 -61 3 -28 179 c-15 98 -28 180 -30 181 -2 2 -24 -32 -50 -75z"></path><path id="pVgt4O3PR" d="M2182 1147 c-26 -134 -27 -157 -7 -157 8 0 15 2 15 4 0 2 11 58 25 126 30 146 29 140 7 140 -15 0 -22 -19 -40 -113z"></path><path id="p170Vratn0" d="M2362 1206 c-17 -30 -32 -57 -32 -60 0 -3 11 -6 25 -6 20 0 25 5 25 25 0 16 6 25 15 25 10 0 15 11 15 35 0 19 -3 35 -8 35 -4 0 -22 -24 -40 -54z"></path><path id="p1FqaBbPXz" d="M2800 1205 c0 -31 3 -35 25 -35 30 0 30 3 8 41 -23 38 -33 37 -33 -6z"></path><path id="pJWbJxldU" d="M2850 1115 c0 -31 3 -35 25 -35 30 0 30 3 8 41 -23 38 -33 37 -33 -6z"></path><path id="ppLv4pVj2" d="M1560 1120 c0 -21 16 -25 58 -14 39 11 27 34 -18 34 -33 0 -40 -3 -40 -20z"></path><path id="pxEd0Gj2O" d="M2282 1076 c-17 -30 -32 -57 -32 -60 0 -3 11 -6 25 -6 20 0 25 5 25 25 0 16 6 25 15 25 10 0 15 11 15 35 0 19 -3 35 -8 35 -4 0 -22 -24 -40 -54z"></path><path id="pPwEgUSh9" d="M3650 1106 c0 -18 42 -29 52 -13 13 21 9 27 -22 27 -19 0 -30 -5 -30 -14z"></path><path id="psLn6czk2" d="M3150 1005 c0 -30 3 -30 41 -8 38 23 37 33 -6 33 -31 0 -35 -3 -35 -25z"></path><path id="p185aJctxL" d="M2009 921 c31 -43 71 -133 71 -158 0 -27 18 -29 46 -8 18 14 18 16 2 26 -10 5 -18 19 -18 29 0 11 -4 20 -10 20 -5 0 -10 9 -10 20 0 24 -21 70 -32 70 -4 0 -8 7 -8 15 0 10 -10 15 -31 15 l-30 0 20 -29z"></path><path id="pj6mSp55b" d="M3010 883 l0 -37 35 34 c19 19 35 35 35 37 0 2 -16 3 -35 3 -34 0 -35 -1 -35 -37z"></path><path id="pBxOTDZsK" d="M2940 804 c0 -39 9 -38 40 6 l21 30 -30 0 c-29 0 -31 -3 -31 -36z"></path><path id="phuz0xuej" d="M2188 813 c-20 -3 -28 -10 -28 -25 0 -18 4 -19 38 -14 81 14 92 18 92 32 0 14 -38 17 -102 7z"></path><path id="pzBIR28O" d="M2430 806 c0 -9 19 -18 50 -25 67 -14 70 -14 70 8 0 14 -10 20 -37 25 -60 9 -83 7 -83 -8z"></path><path id="plrlFoAQj" d="M2560 775 c0 -8 5 -15 12 -15 27 0 177 -82 221 -120 26 -24 49 -41 51 -39 9 13 56 99 56 103 0 3 -11 6 -25 6 -20 0 -25 -5 -25 -25 0 -20 -5 -25 -25 -25 -18 0 -25 5 -25 20 0 11 -7 20 -15 20 -8 0 -15 5 -15 10 0 6 -11 10 -25 10 -15 0 -25 6 -25 14 0 14 -21 26 -47 26 -8 0 -21 7 -29 15 -9 8 -31 15 -50 15 -24 0 -34 -5 -34 -15z"></path></g></g><g id="l4MB1cCuMXulkvsq5Qa1Noj" fill="rgb(244,67,54)" style="transform: none;"><g style="transform: none;"><path id="pxSTEwXHq" d="M1265 3228 c3 -13 19 -158 35 -323 72 -709 150 -1283 227 -1672 l26 -132 56 5 c120 13 243 -32 342 -123 66 -62 99 -112 124 -190 l17 -51 56 20 c40 14 92 22 174 25 188 8 326 -33 463 -138 l63 -48 12 29 c38 92 178 258 282 335 112 83 285 129 464 123 77 -2 95 0 99 12 2 8 18 83 34 165 65 329 148 937 215 1570 l33 320 -32 33 -32 33 -34 -19 c-72 -42 -304 -99 -520 -127 l-47 -6 -6 -52 c-4 -29 -9 -73 -13 -99 -3 -27 -3 -48 0 -48 3 0 21 14 39 30 18 17 36 30 41 30 28 0 3 -54 -118 -260 -75 -128 -134 -234 -131 -237 2 -3 13 0 23 6 22 11 369 153 460 187 l63 24 19 -38 20 -39 -52 -39 c-29 -21 -128 -94 -220 -161 l-169 -123 80 0 c43 0 154 -3 245 -7 149 -5 167 -8 167 -23 0 -10 -10 -20 -24 -24 -13 -3 -130 -42 -260 -87 l-237 -82 198 -77 c299 -117 353 -140 353 -156 0 -11 -48 -14 -272 -16 l-273 -3 183 -155 c100 -85 182 -158 182 -163 0 -23 -50 -12 -255 56 -124 42 -225 74 -225 71 0 -2 17 -30 37 -61 65 -102 223 -365 223 -372 0 -3 -16 -19 -36 -35 l-36 -29 -199 199 c-109 109 -199 192 -199 184 0 -8 18 -125 40 -259 21 -135 37 -248 34 -253 -15 -24 -39 11 -148 209 -66 119 -121 212 -123 207 -1 -5 -16 -115 -33 -244 -17 -129 -33 -241 -35 -247 -2 -7 -20 -13 -38 -13 -40 0 -31 -37 -82 314 -20 132 -37 241 -39 243 -2 2 -62 -92 -134 -209 -161 -261 -157 -256 -173 -241 -10 10 -2 61 34 244 26 128 45 234 44 236 -2 1 -80 -63 -173 -143 -235 -202 -212 -188 -253 -152 -28 25 -32 33 -23 51 5 12 71 111 145 220 76 110 128 196 119 193 -9 -3 -117 -35 -240 -72 -212 -63 -263 -72 -245 -40 4 7 96 84 203 171 107 87 201 164 209 171 12 10 -38 12 -279 7 -277 -6 -292 -5 -289 12 4 18 51 37 368 148 l155 54 -130 50 c-71 28 -180 70 -242 93 -84 32 -112 47 -110 59 3 14 35 16 293 13 l290 -3 -40 33 c-22 18 -127 106 -233 196 l-193 163 16 27 c42 70 21 74 254 -42 116 -59 213 -106 217 -106 3 0 -11 30 -32 68 -20 37 -53 96 -73 132 l-35 65 38 -38 c21 -21 40 -36 43 -33 3 3 1 11 -4 18 -6 7 -31 52 -57 100 -39 73 -46 95 -46 142 0 55 0 55 -32 60 -289 43 -485 94 -556 146 -51 37 -85 40 -77 8z m658 -316 c8 -23 13 -42 11 -42 -8 0 -43 78 -37 84 9 8 9 7 26 -42z"></path><path id="p15jjCZFIE" d="M2380 3029 c0 -8 10 -19 22 -24 13 -6 44 -52 79 -118 64 -124 79 -143 79 -107 1 14 11 76 23 138 l23 112 -61 0 c-33 0 -84 3 -112 6 -42 5 -53 4 -53 -7z"></path><path id="pPxYVLkvM" d="M2757 3033 c-49 -3 -57 -7 -53 -21 3 -9 19 -96 36 -192 17 -96 32 -179 34 -185 1 -5 40 57 85 138 75 133 101 164 101 121 0 -8 5 -12 10 -9 11 7 13 61 4 118 l-7 37 -76 -2 c-42 -1 -102 -3 -134 -5z"></path><path id="pCUqdCGOa" d="M2235 2881 c-9 -22 -32 -54 -51 -72 -34 -33 -47 -73 -21 -63 8 3 56 -31 108 -75 52 -43 95 -78 96 -77 1 1 -17 74 -40 164 -45 178 -59 196 -92 123z"></path><path id="peB2ulgoo" d="M3044 2767 c17 -13 18 -17 3 -65 -16 -57 -15 -57 49 -5 23 18 46 33 53 33 6 0 11 6 11 13 0 16 -56 37 -100 37 -31 0 -32 -1 -16 -13z"></path></g></g><g id="l2ornhVRqY5fEHOMcYJCWUW" fill="rgb(228,77,56)" style="transform: none;"><g style="transform: none;"><path id="pANddm3bj" d="M2428 3533 c-10 -2 -18 -11 -18 -19 0 -11 18 -14 85 -14 78 0 85 2 85 20 0 18 -6 20 -67 19 -38 -1 -76 -3 -85 -6z"></path><path id="pDZuNmjeJ" d="M2680 3520 c0 -18 7 -20 85 -20 66 0 85 3 85 14 0 18 -31 26 -107 26 -56 0 -63 -2 -63 -20z"></path><path id="pAZwP93wf" d="M2218 3523 c-10 -2 -18 -11 -18 -19 0 -10 13 -14 50 -14 43 0 50 3 50 20 0 16 -6 20 -32 19 -18 -1 -41 -3 -50 -6z"></path><path id="p18mr68Tq2" d="M2960 3510 c0 -17 7 -20 50 -20 36 0 50 4 50 14 0 15 -30 26 -72 26 -21 0 -28 -5 -28 -20z"></path><path id="pMdAiSMRr" d="M2098 3513 c-36 -9 -20 -33 22 -33 33 0 40 3 40 20 0 20 -20 24 -62 13z"></path><path id="pXOx0YoY9" d="M3100 3500 c0 -17 7 -20 40 -20 45 0 57 23 18 34 -42 11 -58 7 -58 -14z"></path><path id="pIdGIKn2y" d="M1998 3503 c-36 -9 -20 -33 22 -33 33 0 40 3 40 20 0 20 -20 24 -62 13z"></path><path id="pCmWsxeJA" d="M3200 3490 c0 -17 7 -20 40 -20 45 0 57 23 18 34 -42 11 -58 7 -58 -14z"></path><path id="pgWOeSZFX" d="M1789 3475 c-289 -50 -484 -120 -519 -185 -52 -98 145 -179 598 -246 19 -3 32 -11 32 -19 0 -8 5 -15 10 -15 6 0 10 16 10 35 0 32 -3 35 -28 35 -47 0 -303 48 -377 71 -85 25 -169 60 -173 71 -2 4 -12 8 -23 8 -25 0 -24 22 1 45 11 10 20 24 20 32 0 7 11 13 25 13 16 0 25 6 25 15 0 10 10 15 28 15 15 0 62 11 105 25 87 28 289 70 385 81 51 5 62 10 62 25 0 24 -10 24 -181 -6z"></path><path id="pJQtdkzQp" d="M3290 3481 c0 -15 11 -20 63 -25 85 -10 239 -40 336 -66 65 -18 81 -26 81 -41 0 -15 7 -19 31 -19 l30 0 -28 40 c-27 37 -33 40 -133 64 -94 23 -336 66 -367 66 -7 0 -13 -8 -13 -19z"></path><path id="pI5UsnDcP" d="M3850 3267 c0 -40 12 -51 50 -45 20 3 20 5 -14 43 l-35 40 -1 -38z"></path><path id="pj6h1BdSB" d="M2274 3163 c3 -42 6 -100 6 -130 0 -40 4 -53 15 -53 8 0 15 7 15 15 0 14 18 15 144 9 l145 -7 5 24 c3 13 10 51 16 84 18 99 20 105 35 105 8 0 17 -14 20 -32 3 -18 11 -64 18 -103 l13 -70 50 -3 c65 -4 114 6 114 23 0 10 -17 15 -67 17 l-68 3 -14 86 c-13 85 -14 87 -43 93 -66 13 -75 9 -81 -36 -3 -24 -11 -67 -17 -95 l-12 -53 -61 0 -62 0 -55 100 c-53 96 -56 100 -89 100 l-34 0 7 -77z"></path><path id="pv2V3K8nC" d="M3880 3200 c-53 -35 -416 -120 -512 -120 -26 0 -28 -3 -27 -37 1 -21 3 -30 6 -21 3 12 19 19 51 23 284 37 569 119 547 156 -8 12 -46 11 -65 -1z"></path><path id="pvdbryagb" d="M1900 2984 c0 -21 18 -54 30 -54 6 0 10 16 10 35 0 28 -4 35 -20 35 -11 0 -20 -7 -20 -16z"></path><path id="p11qOgP8iz" d="M2256 2938 c-9 -36 -7 -78 5 -78 11 0 39 60 39 85 0 24 -37 18 -44 -7z"></path><path id="pJlY5F5w3" d="M2950 2933 c1 -43 59 -141 100 -170 19 -13 20 -12 20 17 0 23 -5 33 -20 37 -11 3 -20 14 -20 24 0 11 -7 19 -15 19 -9 0 -15 9 -15 23 0 42 -12 67 -31 67 -12 0 -19 -7 -19 -17z"></path><path id="p5Mqadyvy" d="M1940 2862 c0 -10 12 -29 26 -43 l25 -24 -3 40 c-2 33 -7 41 -25 43 -17 3 -23 -2 -23 -16z"></path><path id="pT2M0DZt6" d="M2210 2813 l1 -38 24 28 c32 36 31 47 0 47 -22 0 -25 -4 -25 -37z"></path></g></g><g id="l2HgMHhzT59k0FmAEFzv2p" fill="rgb(201,57,57)" style="transform: none;"><g style="transform: none;"><path id="p5jkjf6L5" d="M2370 3529 c-303 -12 -611 -52 -805 -103 -170 -46 -247 -82 -288 -138 -17 -23 -19 -32 -9 -53 14 -31 24 -32 37 -2 14 31 140 92 255 122 272 71 569 98 1070 98 489 0 789 -26 1050 -93 43 -11 88 -20 99 -20 16 0 21 -6 21 -25 0 -18 5 -25 20 -25 15 0 20 -7 20 -25 0 -21 5 -25 31 -25 24 0 29 3 22 12 -5 7 -35 45 -67 85 l-57 72 -107 25 c-219 52 -469 82 -805 96 -127 5 -248 9 -267 8 -19 -1 -118 -5 -220 -9z"></path><path id="pPzGWuvLn" d="M2260 3215 c0 -28 4 -35 20 -35 12 0 20 7 20 17 0 15 2 14 15 -3 13 -18 14 -17 15 19 0 36 -1 37 -35 37 -33 0 -35 -2 -35 -35z"></path><path id="pw1Ev15jZ" d="M2640 3220 c0 -5 7 -10 15 -10 8 0 17 -11 21 -25 10 -39 34 -31 34 10 0 33 -2 35 -35 35 -19 0 -35 -4 -35 -10z"></path><path id="pBoCHSqRf" d="M2590 3145 c0 -40 24 -49 34 -12 10 37 7 47 -14 47 -16 0 -20 -7 -20 -35z"></path><path id="pIVwthnMH" d="M2700 3046 c0 -27 12 -45 26 -39 23 8 18 53 -6 53 -11 0 -20 -6 -20 -14z"></path><path id="pHAC4QyZf" d="M1900 2998 c0 -30 13 -58 26 -58 9 0 14 12 14 35 0 28 -4 35 -20 35 -11 0 -20 -6 -20 -12z"></path><path id="p18WsNVwCr" d="M2270 2975 c0 -40 24 -49 34 -12 10 37 7 47 -14 47 -16 0 -20 -7 -20 -35z"></path><path id="ptuZIrRfB" d="M2940 2988 c0 -30 13 -58 26 -58 9 0 14 12 14 35 0 28 -4 35 -20 35 -11 0 -20 -6 -20 -12z"></path><path id="pYLWaS9ou" d="M2150 2766 c0 -19 4 -23 19 -19 11 3 27 14 37 24 17 18 16 19 -19 19 -32 0 -37 -3 -37 -24z"></path></g></g><g id="l1Wv9IsB8FDR8HckXPBeo8d" fill="rgb(203,44,42)" style="transform: none;"><g style="transform: none;"><path id="pfDKBIj9A" d="M2325 3484 c-190 -9 -393 -27 -517 -45 -316 -45 -558 -135 -540 -201 8 -31 86 -75 190 -108 90 -29 348 -80 405 -80 29 0 32 -4 42 -62 4 -25 11 -38 22 -38 13 0 15 10 9 69 -16 163 73 345 169 345 63 0 145 -107 161 -211 5 -33 11 -43 25 -43 22 0 25 25 9 80 -13 47 1 28 65 -88 l50 -92 46 0 c25 0 67 -3 91 -6 l46 -6 18 103 c17 90 22 104 39 104 16 0 21 -10 28 -50 4 -27 12 -72 17 -100 l10 -50 114 3 114 3 6 -38 c19 -107 71 -195 137 -228 39 -21 69 -19 69 3 0 19 -48 42 -88 42 -18 0 -22 6 -22 30 0 17 -4 30 -9 30 -5 0 -19 33 -32 73 -32 97 -32 216 1 301 25 65 84 132 126 142 58 15 132 -55 169 -161 23 -65 24 -203 1 -264 -18 -49 -21 -101 -5 -101 16 0 50 87 56 146 5 45 9 55 27 58 12 3 84 14 161 26 153 24 280 58 364 96 l55 25 -41 42 c-22 23 -56 63 -77 89 -36 45 -40 47 -144 72 -255 61 -519 85 -967 90 -181 2 -361 2 -400 0z"></path><path id="p1EplJtriv" d="M2266 2989 c-10 -62 -47 -141 -78 -167 -28 -24 -39 -72 -16 -72 6 0 28 18 49 39 40 43 73 118 84 194 7 43 5 47 -13 47 -15 0 -21 -9 -26 -41z"></path></g></g><g id="l7kCZdQxs0M0sbiDwRSfKfR" fill="rgb(66,43,13)" style="transform: none;"><g style="transform: none;"><path id="p2LuVK0YB" d="M2050 3394 c-27 -11 -81 -68 -101 -106 -34 -66 -52 -165 -46 -253 10 -144 60 -246 142 -285 59 -29 103 -21 156 27 144 130 144 451 0 587 -24 23 -41 30 -83 32 -29 2 -60 1 -68 -2z"></path><path id="p12AsaUSwH" d="M3053 3371 c-77 -56 -120 -188 -110 -336 10 -154 61 -252 149 -289 42 -17 52 -18 90 -7 61 19 111 75 139 158 20 56 24 87 23 178 -1 119 -15 177 -61 247 -56 83 -154 104 -230 49z"></path></g></g></svg>